#
# Created for Leeds COMP 5821M Autumn 2020
#
# Generated from file test/5bout.tri
# Using Face Normals
#
# Vertex Count 64
# Face Count   128
# Texture Coordinates are theta/phi on sphere from normal vector
#
v 2 0.66 1
v 3 0.56897 2
v 2 0.99 2
v 3 0.51031 1
v 1 0.5 1
v 1 0.55 2
v 3 0.60366 3
v 2 0.76154 3
v 2 1 0.66
v 3 1 0.51031
v 3.48969 1 1
v 3.43103 1 2
v 0.55 1 2
v 0.5 1 1
v 1 0.58235 3
v 1 1 0.5
v 3 1 3.39634
v 2 1 3.23846
v 3.39634 1 3
v 2 2 0.9
v 3 2 0.53804
v 3.35714 2 2
v 3.46196 2 1
v 0.52105 2 1
v 0.61875 2 2
v 0.58235 1 3
v 1 1 3.41765
v 1 2 0.52105
v 2 1.775 3
v 2.09574 2 3
v 3 2 3.46196
v 3.46196 2 3
v 2 3 0.825
v 3 3 0.60366
v 3.43103 3 2
v 3.39634 3 1
v 0.52105 2 3
v 0.58235 3 1
v 0.55 3 2
v 1.91 2 3
v 1 2 3.47895
v 1 3 0.58235
v 2.55645 2 2
v 2 1.01429 2
v 3 3 3.48969
v 2 2.18 3
v 2 3 3.29286
v 3.48969 3 3
v 2 3.175 1
v 3 3.39634 1
v 3 3.43103 2
v 0.5 3 3
v 1 3.45 2
v 1 3.41765 1
v 1 3 3.5
v 1.46923 2 2
v 2.20213 3 2
v 2 3 2.31667
v 2 2 1.1375
v 3 3.48969 3
v 2 3.29286 3
v 2 3 1.525
v 1 3.5 3
v 1.81 3 2
vn -0.371248 -0.881762 0.290982
vn -0.147792 -0.987321 0.0579163
vn 0.402317 -0.914358 0.0457179
vn 0.150217 -0.938853 0.309822
vn -0.152123 -0.963536 -0.220129
vn -0.387841 -0.921172 0.0319554
vn -0.105259 -0.703179 -0.703179
vn -0.105259 -0.703179 -0.703179
vn 0.706499 -0.706499 0.0414433
vn 0.706499 -0.706499 0.0414433
vn -0.706665 -0.706665 0.0353333
vn -0.706665 -0.706665 0.0353333
vn 0.176291 -0.983823 0.0318267
vn 0.394212 -0.895936 -0.204685
vn 0.11242 -0.702624 -0.702624
vn 0.11242 -0.702624 -0.702624
vn -0.110949 -0.702741 0.702741
vn -0.110949 -0.702741 0.702741
vn 0.706894 -0.706894 0.0245223
vn 0.706894 -0.706894 0.0245221
vn -0.144039 0.230939 -0.962247
vn -0.340235 0.0260656 -0.939979
vn 0.57735 -0.57735 -0.57735
vn 0.995579 0.0735633 0.0584007
vn 0.994173 0.0275684 0.104209
vn -0.57735 -0.57735 -0.57735
vn -0.998532 0.0210191 0.0499266
vn -0.99294 0.0682646 0.0970102
vn -0.706922 -0.706922 0.0228689
vn -0.706922 -0.706922 0.0228689
vn 0.125701 -0.701498 0.701498
vn 0.125701 -0.701498 0.701498
vn 0.157956 0.0207811 -0.987227
vn 0.345759 0.218979 -0.912414
vn -0.149209 0.290792 0.94508
vn -0.283547 0.120653 0.951338
vn -0.454167 -0.0583367 0.889005
vn 0.57735 -0.57735 0.57735
vn 0.997257 -0.0654402 0.034595
vn 0.991876 0.0732897 -0.103969
vn -0.339507 -0.0703477 -0.937969
vn -0.215667 0.0639383 -0.974371
vn 0.706971 0.0196043 -0.706971
vn 0.706971 0.0196043 -0.706971
vn 0.991876 -0.0732897 0.103969
vn 0.997257 0.0654402 -0.034595
vn -0.707029 0.0148829 -0.707029
vn -0.707029 0.0148829 -0.707029
vn -0.997126 0.0685524 0.032257
vn -0.993414 -0.0608963 -0.0970566
vn -0.993414 0.0608963 0.0970566
vn -0.997126 -0.0685524 -0.032257
vn -0.57735 -0.57735 0.57735
vn 0.465065 -0.0541658 0.883618
vn 0.301535 0.120614 0.945795
vn 0.168808 0.289864 0.942063
vn 0.353779 0.0572283 -0.933577
vn 0.235183 -0.0726922 -0.969229
vn -0.84718 0.360485 -0.390304
vn -0.815656 0.460452 -0.35027
vn 0.706347 -0.0463506 0.706347
vn 0.706347 -0.0463506 0.706347
vn -0.454803 -0.0246866 0.89025
vn -0.318077 -0.169182 0.932848
vn -0.182258 -0.330706 0.925967
vn 0.994173 -0.0275684 -0.104209
vn 0.995579 -0.0735633 -0.0584007
vn -0.154629 0.698602 -0.698602
vn -0.154629 0.698602 -0.698602
vn 0.706347 0.0463506 -0.706347
vn 0.706347 0.0463505 -0.706347
vn 0.706894 0.706894 -0.0245222
vn 0.706894 0.706894 -0.0245223
vn -0.706443 0.043305 -0.706443
vn -0.706443 0.043305 -0.706443
vn -0.706443 -0.043305 0.706443
vn -0.706443 -0.043305 0.706443
vn -0.99294 -0.0682646 -0.0970102
vn -0.998532 -0.0210191 -0.0499266
vn -0.706922 0.706922 -0.022869
vn -0.706922 0.706922 -0.0228689
vn 0.191463 -0.330117 0.924318
vn 0.329647 -0.164824 0.929605
vn 0.465668 -0.0186243 0.884764
vn 0.820825 0.441985 -0.361795
vn 0.893502 0.357401 -0.271879
vn 0.169108 0.696923 -0.696923
vn 0.169108 0.696923 -0.696923
vn -0.86458 -0.306338 -0.39832
vn -0.769151 -0.409118 -0.490948
vn -0.769164 -0.40911 -0.490934
vn -0.759209 0.428586 0.489811
vn 0.706971 -0.0196043 0.706971
vn 0.706971 -0.0196043 0.706971
vn -0.137851 0.700356 0.700356
vn -0.137851 0.700356 0.700356
vn 0.706499 0.706499 -0.0414433
vn 0.706499 0.706499 -0.0414433
vn -0.475082 0.879413 -0.030507
vn -0.305578 0.943246 0.130035
vn -0.2055 0.928436 0.309478
vn 0.57735 0.57735 -0.57735
vn -0.57735 0.57735 -0.57735
vn -0.707029 -0.0148829 0.707029
vn -0.707029 -0.0148829 0.707029
vn -0.706665 0.706665 -0.0353332
vn -0.706665 0.706665 -0.0353333
vn 0.224331 0.924504 0.308168
vn 0.323532 0.937326 0.129413
vn 0.485449 0.873808 -0.0282677
vn 0.144924 0.699642 0.699642
vn 0.144924 0.699642 0.699642
vn 0.87357 -0.297686 -0.385043
vn 0.78811 -0.394055 -0.472866
vn 0.788114 -0.394051 -0.472864
vn 0.774138 0.416846 0.476393
vn -0.805359 -0.285355 0.519585
vn -0.909741 -0.150012 0.387128
vn -0.178025 0.90446 -0.387632
vn -0.316089 0.927028 -0.201759
vn -0.474671 0.878653 -0.0515418
vn 0.57735 0.57735 0.57735
vn -0.57735 0.57735 0.57735
vn 0.48518 0.873323 -0.0436661
vn 0.327696 0.924098 -0.196616
vn 0.187032 0.902924 -0.386973
vn 0.83462 -0.199025 0.513613
vn 0.885225 -0.301658 0.35409
vt 0.241938 0.408836 0
vt 0.288546 0.530634 0
vt 0.251025 0.514628 0
vt 0.28924 0.353207 0
vt 0.204844 0.443226 0
vt 0.213488 0.497094 0
vt 0.295321 0.574723 0
vt 0.260344 0.605892 0
vt 0.275199 0.102536 0
vt 0.402565 0.113536 0
vt 0.439593 0.435375 0
vt 0.439525 0.504604 0
vt 0.058369 0.515849 0
vt 0.0512481 0.355192 0
vt 0.213517 0.657567 0
vt 0.180978 0.168138 0
vt 0.266546 0.904949 0
vt 0.266642 0.883282 0
vt 0.440756 0.65181 0
vt 0.70591 0.0227917 0
vt 0.517089 0.0772769 0
vt 0.5 0.5 0
vt 0.503283 0.384029 0
vt 0.99216 0.388028 0
vt 1 0.5 0
vt 0.0649453 0.577266 0
vt 0.131567 0.921696 0
vt 0.954637 0.082659 0
vt 0.805816 0.791449 0
vt 0.0295962 0.618577 0
vt 0.474542 0.902999 0
vt 0.496717 0.615971 0
vt 0.760766 0.12268 0
vt 0.694448 0.173646 0
vt 0.560475 0.495396 0
vt 0.559244 0.34819 0
vt 0.00784017 0.611972 0
vt 0.935055 0.422734 0
vt 0.941631 0.484151 0
vt 0.499698 0.630833 0
vt 0.0194149 0.904828 0
vt 0.868012 0.120425 0
vt 0.974631 0.490057 0
vt 0.684837 0.49754 0
vt 0.606877 0.933838 0
vt 0.30747 0.745378 0
vt 0.763409 0.88841 0
vt 0.560407 0.564625 0
vt 0.75489 0.386109 0
vt 0.725325 0.447534 0
vt 0.703359 0.485123 0
vt 0.948752 0.644808 0
vt 0.795993 0.487936 0
vt 0.747435 0.409366 0
vt 0.750852 0.916925 0
vt 0.502297 0.545082 0
vt 0.925759 0.492124 0
vt 0.796131 0.245391 0
vt 0.961937 0.886273 0
vt 0.748839 0.575028 0
vt 0.743445 0.603995 0
vt 0.707331 0.687207 0
vt 0.774771 0.533654 0
vt 0.567046 0.435508 0
f 1/1/1 2/2/1 3/3/1
f 1/1/2 4/4/2 2/2/2
f 5/5/3 3/3/3 6/6/3
f 5/5/4 1/1/4 3/3/4
f 3/3/5 7/7/5 8/8/5
f 3/3/6 2/2/6 7/7/6
f 9/9/7 4/4/7 1/1/7
f 10/10/8 4/4/8 9/9/8
f 2/2/9 11/11/9 12/12/9
f 4/4/10 11/11/10 2/2/10
f 5/5/11 13/13/11 14/14/11
f 6/6/12 13/13/12 5/5/12
f 6/6/13 8/8/13 15/15/13
f 6/6/14 3/3/14 8/8/14
f 16/16/15 1/1/15 5/5/15
f 9/9/16 1/1/16 16/16/16
f 8/8/17 17/17/17 18/18/17
f 7/7/18 17/17/18 8/8/18
f 7/7/19 12/12/19 19/19/19
f 2/2/20 12/12/20 7/7/20
f 20/20/21 10/10/21 9/9/21
f 20/20/22 21/21/22 10/10/22
f 10/10/23 11/11/23 4/4/23
f 11/11/24 22/22/24 12/12/24
f 11/11/25 23/23/25 22/22/25
f 14/14/26 16/16/26 5/5/26
f 13/13/27 24/24/27 14/14/27
f 13/13/28 25/25/28 24/24/28
f 6/6/29 26/26/29 13/13/29
f 15/15/30 26/26/30 6/6/30
f 15/15/31 18/18/31 27/27/31
f 8/8/32 18/18/32 15/15/32
f 28/28/33 9/9/33 16/16/33
f 28/28/34 20/20/34 9/9/34
f 17/17/35 29/29/35 18/18/35
f 17/17/36 30/30/36 29/29/36
f 17/17/37 31/31/37 30/30/37
f 7/7/38 19/19/38 17/17/38
f 12/12/39 32/32/39 19/19/39
f 12/12/40 22/22/40 32/32/40
f 33/33/41 21/21/41 20/20/41
f 33/33/42 34/34/42 21/21/42
f 10/10/43 23/23/43 11/11/43
f 21/21/44 23/23/44 10/10/44
f 23/23/45 35/35/45 22/22/45
f 23/23/46 36/36/46 35/35/46
f 14/14/47 28/28/47 16/16/47
f 24/24/48 28/28/48 14/14/48
f 26/26/49 25/25/49 13/13/49
f 26/26/50 37/37/50 25/25/50
f 25/25/51 38/38/51 24/24/51
f 25/25/52 39/39/52 38/38/52
f 27/27/53 26/26/53 15/15/53
f 27/27/54 40/40/54 41/41/54
f 27/27/55 29/29/55 40/40/55
f 27/27/56 18/18/56 29/29/56
f 42/42/57 20/20/57 28/28/57
f 42/42/58 33/33/58 20/20/58
f 29/29/59 30/30/59 43/43/59
f 29/29/60 43/43/60 44/44/60
f 31/31/61 19/19/61 32/32/61
f 17/17/62 19/19/62 31/31/62
f 45/45/63 30/30/63 31/31/63
f 45/45/64 46/46/64 30/30/64
f 45/45/65 47/47/65 46/46/65
f 22/22/66 48/48/66 32/32/66
f 22/22/67 35/35/67 48/48/67
f 49/49/68 34/34/68 33/33/68
f 50/50/69 34/34/69 49/49/69
f 21/21/70 36/36/70 23/23/70
f 34/34/71 36/36/71 21/21/71
f 50/50/72 35/35/72 36/36/72
f 51/51/73 35/35/73 50/50/73
f 24/24/74 42/42/74 28/28/74
f 38/38/75 42/42/75 24/24/75
f 27/27/76 37/37/76 26/26/76
f 41/41/77 37/37/77 27/27/77
f 37/37/78 39/39/78 25/25/78
f 37/37/79 52/52/79 39/39/79
f 38/38/80 53/53/80 54/54/80
f 39/39/81 53/53/81 38/38/81
f 55/55/82 46/46/82 47/47/82
f 55/55/83 40/40/83 46/46/83
f 55/55/84 41/41/84 40/40/84
f 44/44/85 56/56/85 40/40/85
f 44/44/86 40/40/86 29/29/86
f 54/54/87 33/33/87 42/42/87
f 49/49/88 33/33/88 54/54/88
f 43/43/89 30/30/89 57/57/89
f 30/30/90 58/58/90 57/57/90
f 30/30/91 46/46/91 58/58/91
f 59/59/92 44/44/92 43/43/92
f 45/45/93 32/32/93 48/48/93
f 31/31/94 32/32/94 45/45/94
f 47/47/95 60/60/95 61/61/95
f 45/45/96 60/60/96 47/47/96
f 51/51/97 48/48/97 35/35/97
f 60/60/98 48/48/98 51/51/98
f 50/50/99 57/57/99 51/51/99
f 50/50/100 62/62/100 57/57/100
f 50/50/101 49/49/101 62/62/101
f 50/50/102 36/36/102 34/34/102
f 54/54/103 42/42/103 38/38/103
f 41/41/104 52/52/104 37/37/104
f 55/55/105 52/52/105 41/41/105
f 39/39/106 63/63/106 53/53/106
f 52/52/107 63/63/107 39/39/107
f 54/54/108 62/62/108 49/49/108
f 54/54/109 64/64/109 62/62/109
f 54/54/110 53/53/110 64/64/110
f 55/55/111 61/61/111 63/63/111
f 47/47/112 61/61/112 55/55/112
f 56/56/113 64/64/113 40/40/113
f 64/64/114 46/46/114 40/40/114
f 64/64/115 58/58/115 46/46/115
f 56/56/116 44/44/116 59/59/116
f 59/59/117 43/43/117 57/57/117
f 59/59/118 57/57/118 62/62/118
f 60/60/119 58/58/119 61/61/119
f 60/60/120 57/57/120 58/58/120
f 60/60/121 51/51/121 57/57/121
f 45/45/122 48/48/122 60/60/122
f 55/55/123 63/63/123 52/52/123
f 63/63/124 64/64/124 53/53/124
f 63/63/125 58/58/125 64/64/125
f 63/63/126 61/61/126 58/58/126
f 56/56/127 59/59/127 62/62/127
f 56/56/128 62/62/128 64/64/128
