#
# Created for Leeds COMP 5821M Autumn 2020
#
# Generated from file test/5bout.tri
# Using Vertex Normals
#
# Vertex Count 64
# Face Count   128
# Texture Coordinates are theta/phi on sphere from normal vector
#
v 2 0.66 1
v 3 0.56897 2
v 2 0.99 2
v 3 0.51031 1
v 1 0.5 1
v 1 0.55 2
v 3 0.60366 3
v 2 0.76154 3
v 2 1 0.66
v 3 1 0.51031
v 3.48969 1 1
v 3.43103 1 2
v 0.55 1 2
v 0.5 1 1
v 1 0.58235 3
v 1 1 0.5
v 3 1 3.39634
v 2 1 3.23846
v 3.39634 1 3
v 2 2 0.9
v 3 2 0.53804
v 3.35714 2 2
v 3.46196 2 1
v 0.52105 2 1
v 0.61875 2 2
v 0.58235 1 3
v 1 1 3.41765
v 1 2 0.52105
v 2 1.775 3
v 2.09574 2 3
v 3 2 3.46196
v 3.46196 2 3
v 2 3 0.825
v 3 3 0.60366
v 3.43103 3 2
v 3.39634 3 1
v 0.52105 2 3
v 0.58235 3 1
v 0.55 3 2
v 1.91 2 3
v 1 2 3.47895
v 1 3 0.58235
v 2.55645 2 2
v 2 1.01429 2
v 3 3 3.48969
v 2 2.18 3
v 2 3 3.29286
v 3.48969 3 3
v 2 3.175 1
v 3 3.39634 1
v 3 3.43103 2
v 0.5 3 3
v 1 3.45 2
v 1 3.41765 1
v 1 3 3.5
v 1.46923 2 2
v 2.20213 3 2
v 2 3 2.31667
v 2 2 1.1375
v 3 3.48969 3
v 2 3.29286 3
v 2 3 1.525
v 1 3.5 3
v 1.81 3 2
vn -0.0485692 -0.958037 -0.2825
vn 0.238722 -0.966322 0.0960904
vn 0.00643537 -0.998923 0.0459402
vn 0.218567 -0.868453 -0.444991
vn -0.275493 -0.944789 -0.177417
vn -0.227397 -0.973759 -0.00912804
vn 0.273223 -0.933406 0.2326
vn 0.0613859 -0.943178 0.326568
vn 0.0499157 -0.312625 -0.948564
vn 0.285756 -0.200658 -0.937059
vn 0.909755 -0.36289 -0.201635
vn 0.928576 -0.370862 0.0144634
vn -0.932343 -0.358133 0.0497719
vn -0.852125 -0.284279 -0.439397
vn -0.199952 -0.856945 0.475041
vn -0.211785 -0.457341 -0.863705
vn 0.0305296 -0.292606 0.955746
vn 0.03742 -0.356559 0.933523
vn 0.827567 -0.323121 0.459049
vn 0.0195664 0.0688142 -0.997438
vn 0.23901 0.0257627 -0.970675
vn 1 0 0
vn 0.934163 0.0192701 -0.356326
vn -0.937625 0.0462261 -0.34456
vn -1 0 0
vn -0.890982 -0.385199 0.240361
vn -0.16495 -0.179156 0.969894
vn -0.246413 0.0721987 -0.966472
vn -0.209331 0.572216 0.792937
vn -0.915355 -0.172208 0.363963
vn 0.296214 -0.0477899 0.953925
vn 0.934163 -0.0192701 0.356325
vn -0.0254115 0.37508 -0.926644
vn 0.177453 0.48758 -0.854854
vn 0.928576 0.370862 -0.0144634
vn 0.827567 0.323121 -0.459049
vn -0.937625 -0.0462261 0.34456
vn -0.890982 0.385199 -0.240361
vn -0.932343 0.358133 -0.0497719
vn 0.91671 -0.00173671 0.399549
vn -0.292368 -0.0358431 0.955634
vn -0.249464 0.272394 -0.929284
vn -0.986842 0.158645 -0.0312304
vn 0.398078 0.917319 -0.00772956
vn 0.161554 0.128394 0.978476
vn 0.253422 -0.671041 0.696765
vn -0.0289013 0.342216 0.939177
vn 0.909755 0.36289 0.201635
vn -0.028776 0.936227 -0.350215
vn 0.152323 0.974615 -0.164081
vn 0.288561 0.956321 -0.046721
vn -0.852125 0.284279 0.439397
vn -0.284775 0.957845 -0.0378926
vn 0.0154666 0.959611 -0.280904
vn -0.00138139 0.258033 0.966135
vn 0.989884 0.0142895 0.141156
vn -0.892887 0.4496 -0.0247397
vn -0.19915 0.66773 -0.71727
vn -0.339778 0.0828453 0.93685
vn 0.00709461 0.972324 0.23353
vn 0.0389957 0.9463 0.32093
vn 0.220391 0.80226 0.554804
vn -0.154148 0.982396 0.10553
vn 0.893908 0.400547 -0.201224
vt 0.241938 0.408836 0
vt 0.288546 0.530634 0
vt 0.251025 0.514628 0
vt 0.28924 0.353207 0
vt 0.204844 0.443226 0
vt 0.213488 0.497094 0
vt 0.295321 0.574723 0
vt 0.260344 0.605892 0
vt 0.275199 0.102536 0
vt 0.402565 0.113536 0
vt 0.439593 0.435375 0
vt 0.439525 0.504604 0
vt 0.058369 0.515849 0
vt 0.0512481 0.355192 0
vt 0.213517 0.657567 0
vt 0.180978 0.168138 0
vt 0.266546 0.904949 0
vt 0.266642 0.883282 0
vt 0.440756 0.65181 0
vt 0.70591 0.0227917 0
vt 0.517089 0.0772769 0
vt 0.5 0.5 0
vt 0.503283 0.384029 0
vt 0.99216 0.388028 0
vt 1 0.5 0
vt 0.0649453 0.577266 0
vt 0.131567 0.921696 0
vt 0.954637 0.082659 0
vt 0.805816 0.791449 0
vt 0.0295962 0.618577 0
vt 0.474542 0.902999 0
vt 0.496717 0.615971 0
vt 0.760766 0.12268 0
vt 0.694448 0.173646 0
vt 0.560475 0.495396 0
vt 0.559244 0.34819 0
vt 0.00784017 0.611972 0
vt 0.935055 0.422734 0
vt 0.941631 0.484151 0
vt 0.499698 0.630833 0
vt 0.0194149 0.904828 0
vt 0.868012 0.120425 0
vt 0.974631 0.490057 0
vt 0.684837 0.49754 0
vt 0.606877 0.933838 0
vt 0.30747 0.745378 0
vt 0.763409 0.88841 0
vt 0.560407 0.564625 0
vt 0.75489 0.386109 0
vt 0.725325 0.447534 0
vt 0.703359 0.485123 0
vt 0.948752 0.644808 0
vt 0.795993 0.487936 0
vt 0.747435 0.409366 0
vt 0.750852 0.916925 0
vt 0.502297 0.545082 0
vt 0.925759 0.492124 0
vt 0.796131 0.245391 0
vt 0.961937 0.886273 0
vt 0.748839 0.575028 0
vt 0.743445 0.603995 0
vt 0.707331 0.687207 0
vt 0.774771 0.533654 0
vt 0.567046 0.435508 0
f 1/1/1 2/2/2 3/3/3
f 1/1/1 4/4/4 2/2/2
f 5/5/5 3/3/3 6/6/6
f 5/5/5 1/1/1 3/3/3
f 3/3/3 7/7/7 8/8/8
f 3/3/3 2/2/2 7/7/7
f 9/9/9 4/4/4 1/1/1
f 10/10/10 4/4/4 9/9/9
f 2/2/2 11/11/11 12/12/12
f 4/4/4 11/11/11 2/2/2
f 5/5/5 13/13/13 14/14/14
f 6/6/6 13/13/13 5/5/5
f 6/6/6 8/8/8 15/15/15
f 6/6/6 3/3/3 8/8/8
f 16/16/16 1/1/1 5/5/5
f 9/9/9 1/1/1 16/16/16
f 8/8/8 17/17/17 18/18/18
f 7/7/7 17/17/17 8/8/8
f 7/7/7 12/12/12 19/19/19
f 2/2/2 12/12/12 7/7/7
f 20/20/20 10/10/10 9/9/9
f 20/20/20 21/21/21 10/10/10
f 10/10/10 11/11/11 4/4/4
f 11/11/11 22/22/22 12/12/12
f 11/11/11 23/23/23 22/22/22
f 14/14/14 16/16/16 5/5/5
f 13/13/13 24/24/24 14/14/14
f 13/13/13 25/25/25 24/24/24
f 6/6/6 26/26/26 13/13/13
f 15/15/15 26/26/26 6/6/6
f 15/15/15 18/18/18 27/27/27
f 8/8/8 18/18/18 15/15/15
f 28/28/28 9/9/9 16/16/16
f 28/28/28 20/20/20 9/9/9
f 17/17/17 29/29/29 18/18/18
f 17/17/17 30/30/30 29/29/29
f 17/17/17 31/31/31 30/30/30
f 7/7/7 19/19/19 17/17/17
f 12/12/12 32/32/32 19/19/19
f 12/12/12 22/22/22 32/32/32
f 33/33/33 21/21/21 20/20/20
f 33/33/33 34/34/34 21/21/21
f 10/10/10 23/23/23 11/11/11
f 21/21/21 23/23/23 10/10/10
f 23/23/23 35/35/35 22/22/22
f 23/23/23 36/36/36 35/35/35
f 14/14/14 28/28/28 16/16/16
f 24/24/24 28/28/28 14/14/14
f 26/26/26 25/25/25 13/13/13
f 26/26/26 37/37/37 25/25/25
f 25/25/25 38/38/38 24/24/24
f 25/25/25 39/39/39 38/38/38
f 27/27/27 26/26/26 15/15/15
f 27/27/27 40/40/40 41/41/41
f 27/27/27 29/29/29 40/40/40
f 27/27/27 18/18/18 29/29/29
f 42/42/42 20/20/20 28/28/28
f 42/42/42 33/33/33 20/20/20
f 29/29/29 30/30/30 43/43/43
f 29/29/29 43/43/43 44/44/44
f 31/31/31 19/19/19 32/32/32
f 17/17/17 19/19/19 31/31/31
f 45/45/45 30/30/30 31/31/31
f 45/45/45 46/46/46 30/30/30
f 45/45/45 47/47/47 46/46/46
f 22/22/22 48/48/48 32/32/32
f 22/22/22 35/35/35 48/48/48
f 49/49/49 34/34/34 33/33/33
f 50/50/50 34/34/34 49/49/49
f 21/21/21 36/36/36 23/23/23
f 34/34/34 36/36/36 21/21/21
f 50/50/50 35/35/35 36/36/36
f 51/51/51 35/35/35 50/50/50
f 24/24/24 42/42/42 28/28/28
f 38/38/38 42/42/42 24/24/24
f 27/27/27 37/37/37 26/26/26
f 41/41/41 37/37/37 27/27/27
f 37/37/37 39/39/39 25/25/25
f 37/37/37 52/52/52 39/39/39
f 38/38/38 53/53/53 54/54/54
f 39/39/39 53/53/53 38/38/38
f 55/55/55 46/46/46 47/47/47
f 55/55/55 40/40/40 46/46/46
f 55/55/55 41/41/41 40/40/40
f 44/44/44 56/56/56 40/40/40
f 44/44/44 40/40/40 29/29/29
f 54/54/54 33/33/33 42/42/42
f 49/49/49 33/33/33 54/54/54
f 43/43/43 30/30/30 57/57/57
f 30/30/30 58/58/58 57/57/57
f 30/30/30 46/46/46 58/58/58
f 59/59/59 44/44/44 43/43/43
f 45/45/45 32/32/32 48/48/48
f 31/31/31 32/32/32 45/45/45
f 47/47/47 60/60/60 61/61/61
f 45/45/45 60/60/60 47/47/47
f 51/51/51 48/48/48 35/35/35
f 60/60/60 48/48/48 51/51/51
f 50/50/50 57/57/57 51/51/51
f 50/50/50 62/62/62 57/57/57
f 50/50/50 49/49/49 62/62/62
f 50/50/50 36/36/36 34/34/34
f 54/54/54 42/42/42 38/38/38
f 41/41/41 52/52/52 37/37/37
f 55/55/55 52/52/52 41/41/41
f 39/39/39 63/63/63 53/53/53
f 52/52/52 63/63/63 39/39/39
f 54/54/54 62/62/62 49/49/49
f 54/54/54 64/64/64 62/62/62
f 54/54/54 53/53/53 64/64/64
f 55/55/55 61/61/61 63/63/63
f 47/47/47 61/61/61 55/55/55
f 56/56/56 64/64/64 40/40/40
f 64/64/64 46/46/46 40/40/40
f 64/64/64 58/58/58 46/46/46
f 56/56/56 44/44/44 59/59/59
f 59/59/59 43/43/43 57/57/57
f 59/59/59 57/57/57 62/62/62
f 60/60/60 58/58/58 61/61/61
f 60/60/60 57/57/57 58/58/58
f 60/60/60 51/51/51 57/57/57
f 45/45/45 48/48/48 60/60/60
f 55/55/55 63/63/63 52/52/52
f 63/63/63 64/64/64 53/53/53
f 63/63/63 58/58/58 64/64/64
f 63/63/63 61/61/61 58/58/58
f 56/56/56 59/59/59 62/62/62
f 56/56/56 62/62/62 64/64/64
