#
# Created for Leeds COMP 5821M Autumn 2020
#
# Generated from file test/bitorus.tri
# Using Face Normals
#
# Vertex Count 50
# Face Count   104
# Texture Coordinates are theta/phi on sphere from normal vector
#
v 1 3 5.5
v 1.5 3 5
v 1 3.5 5
v 0.5 3 5
v 1.5 2 5
v 1 2 5.5
v 1 3.5 4
v 1.5 3 4
v 0.5 2 5
v 0.5 3 4
v 1 2.5 4
v 1 2 4.5
v 1.5 1 5
v 1 1 5.5
v 1 3.5 3
v 1.5 3 3
v 0.5 1 5
v 0.5 3 3
v 1 2 3.5
v 1.5 2 3
v 1 1.5 4
v 1.5 1 4
v 1 0.5 5
v 1 3.5 2
v 1.5 3 2
v 0.5 1 4
v 0.5 2 3
v 0.5 3 2
v 1 2.5 2
v 1 2 2.5
v 1.5 1 3
v 1 0.5 4
v 1 3.5 1
v 1.5 3 1
v 0.5 1 3
v 0.5 3 1
v 1 2 1.5
v 1.5 2 1
v 1 1.5 2
v 1.5 1 2
v 1 0.5 3
v 1 3 0.5
v 0.5 1 2
v 0.5 2 1
v 1 2 0.5
v 1.5 1 1
v 1 0.5 2
v 0.5 1 1
v 1 1 0.5
v 1 0.5 1
vn 0.57735 0.57735 0.57735
vn -0.57735 0.57735 0.57735
vn 0.707107 0 0.707107
vn 0.707107 -0 0.707107
vn 0.707107 0.707107 0
vn 0.707107 0.707107 0
vn -0.707107 0 0.707107
vn -0.707107 0 0.707107
vn -0.707107 0.707107 0
vn -0.707107 0.707107 0
vn 0.707107 -0.707107 0
vn 0.904534 -0.301511 -0.301511
vn 0.707107 0 -0.707107
vn 0.707107 0 0.707107
vn 0.707107 -0 0.707107
vn 0.707107 0.707107 0
vn 0.707107 0.707107 0
vn -0.707107 0 0.707107
vn -0.707107 0 0.707107
vn -0.707107 -0 -0.707107
vn -0.904534 -0.301511 -0.301511
vn -0.707107 -0.707107 -0
vn -0.707107 0.707107 0
vn -0.707107 0.707107 0
vn 0.707107 0 0.707107
vn 0.904534 -0.301511 0.301511
vn 0.707107 -0.707107 0
vn 0.707107 0 -0.707107
vn 0.904534 0.301511 -0.301511
vn 0.707107 0.707107 0
vn 0.57735 -0.57735 0.57735
vn 0.707107 0.707107 0
vn 0.707107 0.707107 0
vn -0.57735 -0.57735 0.57735
vn -0.707107 0.707107 0
vn -0.904534 0.301511 -0.301511
vn -0.707107 0 -0.707107
vn -0.707107 -0.707107 0
vn -0.904534 -0.301511 0.301511
vn -0.707107 0 0.707107
vn -0.707107 0.707107 0
vn -0.707107 0.707107 0
vn 0.707107 -0.707107 0
vn 0.904534 -0.301511 -0.301511
vn 0.707107 0 -0.707107
vn 0.707107 0.707107 -0
vn 0.904534 0.301511 0.301511
vn 0.707107 -0 0.707107
vn 0.707107 -0.707107 0
vn 0.707107 -0.707107 0
vn 0.707107 0.707107 0
vn 0.707107 0.707107 0
vn -0.707107 -0.707107 0
vn -0.707107 -0.707107 -0
vn -0.707107 0 0.707107
vn -0.904534 0.301511 0.301511
vn -0.707107 0.707107 0
vn -0.707107 -0 -0.707107
vn -0.904534 -0.301511 -0.301511
vn -0.707107 -0.707107 -0
vn -0.707107 0.707107 0
vn -0.707107 0.707107 0
vn 0.707107 0 0.707107
vn 0.904534 -0.301511 0.301511
vn 0.707107 -0.707107 0
vn 0.707107 0 -0.707107
vn 0.904534 0.301511 -0.301511
vn 0.707107 0.707107 0
vn 0.707107 -0.707107 0
vn 0.707107 -0.707107 0
vn 0.57735 0.57735 -0.57735
vn -0.707107 -0.707107 0
vn -0.707107 -0.707107 -0
vn -0.707107 0.707107 0
vn -0.904534 0.301511 -0.301511
vn -0.707107 0 -0.707107
vn -0.707107 -0.707107 0
vn -0.904534 -0.301511 0.301511
vn -0.707107 0 0.707107
vn -0.57735 0.57735 -0.57735
vn 0.707107 0 -0.707107
vn 0.707107 0 -0.707107
vn 0.707107 0.707107 -0
vn 0.904534 0.301511 0.301511
vn 0.707107 -0 0.707107
vn 0.707107 -0.707107 0
vn 0.707107 -0.707107 0
vn -0.707107 -0.707107 0
vn -0.707107 -0.707107 -0
vn -0.707107 0 0.707107
vn -0.904534 0.301511 0.301511
vn -0.707107 0.707107 0
vn -0.707107 0 -0.707107
vn -0.707107 -0 -0.707107
vn 0.707107 0 -0.707107
vn 0.707107 0 -0.707107
vn 0.707107 -0.707107 0
vn 0.707107 -0.707107 0
vn -0.707107 -0.707107 0
vn -0.707107 -0.707107 -0
vn -0.707107 0 -0.707107
vn -0.707107 -0 -0.707107
vn 0.57735 -0.57735 -0.57735
vn -0.57735 -0.57735 -0.57735
vt 0.66255 0.875246 0
vt 0.53079 0.517156 0
vt 0.783833 0.605615 0
vt 0.991259 0.561489 0
vt 0.5 0.562833 0
vt 0.5 1 0
vt 0.75 0.5 0
vt 0.531416 0.5 0
vt 1 0.562833 0
vt 0.968584 0.5 0
vt 0.25 0.5 0
vt 0.5 2.40317e-08 0
vt 0.491259 0.561489 0
vt 0.16255 0.875246 0
vt 0.75 0.5 0
vt 0.502451 0.5 0
vt 0.0307896 0.517156 0
vt 0.997549 0.5 0
vt 0.5 1 0
vt 0.5 0.5 0
vt 0.75 0.5 0
vt 0.468584 0.5 0
vt 0.283833 0.605615 0
vt 0.75 0.5 0
vt 0.531416 0.5 0
vt 0.0314165 0.5 0
vt 1 0.5 0
vt 0.968584 0.5 0
vt 0.25 0.5 0
vt 0.5 2.40317e-08 0
vt 0.497549 0.5 0
vt 0.25 0.5 0
vt 0.716167 0.394385 0
vt 0.508741 0.438511 0
vt 0.00245077 0.5 0
vt 0.96921 0.482844 0
vt 0.5 1 0
vt 0.5 0.437167 0
vt 0.75 0.5 0
vt 0.468584 0.5 0
vt 0.25 0.5 0
vt 0.83745 0.124754 0
vt 0.0314165 0.5 0
vt 1 0.437167 0
vt 0.5 2.40317e-08 0
vt 0.46921 0.482844 0
vt 0.25 0.5 0
vt 0.00874096 0.438511 0
vt 0.33745 0.124754 0
vt 0.216167 0.394385 0
f 1/1/1 2/2/1 3/3/1
f 1/1/2 3/3/2 4/4/2
f 1/1/3 5/5/3 2/2/3
f 6/6/4 5/5/4 1/1/4
f 7/7/5 2/2/5 8/8/5
f 3/3/6 2/2/6 7/7/6
f 6/6/7 4/4/7 9/9/7
f 1/1/8 4/4/8 6/6/8
f 10/10/9 3/3/9 7/7/9
f 4/4/10 3/3/10 10/10/10
f 2/2/11 11/11/11 8/8/11
f 2/2/12 12/12/12 11/11/12
f 2/2/13 5/5/13 12/12/13
f 6/6/14 13/13/14 5/5/14
f 14/14/15 13/13/15 6/6/15
f 15/15/16 8/8/16 16/16/16
f 7/7/17 8/8/17 15/15/17
f 14/14/18 9/9/18 17/17/18
f 6/6/19 9/9/19 14/14/19
f 4/4/20 12/12/20 9/9/20
f 4/4/21 11/11/21 12/12/21
f 4/4/22 10/10/22 11/11/22
f 18/18/23 7/7/23 15/15/23
f 10/10/24 7/7/24 18/18/24
f 16/16/25 19/19/25 20/20/25
f 16/16/26 11/11/26 19/19/26
f 16/16/27 8/8/27 11/11/27
f 13/13/28 12/12/28 5/5/28
f 13/13/29 21/21/29 12/12/29
f 13/13/30 22/22/30 21/21/30
f 23/23/31 13/13/31 14/14/31
f 24/24/32 16/16/32 25/25/32
f 15/15/33 16/16/33 24/24/33
f 14/14/34 17/17/34 23/23/34
f 17/17/35 21/21/35 26/26/35
f 17/17/36 12/12/36 21/21/36
f 17/17/37 9/9/37 12/12/37
f 18/18/38 11/11/38 10/10/38
f 18/18/39 19/19/39 11/11/39
f 18/18/40 27/27/40 19/19/40
f 28/28/41 15/15/41 24/24/41
f 18/18/42 15/15/42 28/28/42
f 16/16/43 29/29/43 25/25/43
f 16/16/44 30/30/44 29/29/44
f 16/16/45 20/20/45 30/30/45
f 31/31/46 21/21/46 22/22/46
f 31/31/47 19/19/47 21/21/47
f 31/31/48 20/20/48 19/19/48
f 23/23/49 22/22/49 13/13/49
f 32/32/50 22/22/50 23/23/50
f 33/33/51 25/25/51 34/34/51
f 24/24/52 25/25/52 33/33/52
f 32/32/53 17/17/53 26/26/53
f 23/23/54 17/17/54 32/32/54
f 35/35/55 19/19/55 27/27/55
f 35/35/56 21/21/56 19/19/56
f 35/35/57 26/26/57 21/21/57
f 18/18/58 30/30/58 27/27/58
f 18/18/59 29/29/59 30/30/59
f 18/18/60 28/28/60 29/29/60
f 36/36/61 24/24/61 33/33/61
f 28/28/62 24/24/62 36/36/62
f 34/34/63 37/37/63 38/38/63
f 34/34/64 29/29/64 37/37/64
f 34/34/65 25/25/65 29/29/65
f 31/31/66 30/30/66 20/20/66
f 31/31/67 39/39/67 30/30/67
f 31/31/68 40/40/68 39/39/68
f 32/32/69 31/31/69 22/22/69
f 41/41/70 31/31/70 32/32/70
f 33/33/71 34/34/71 42/42/71
f 41/41/72 26/26/72 35/35/72
f 32/32/73 26/26/73 41/41/73
f 35/35/74 39/39/74 43/43/74
f 35/35/75 30/30/75 39/39/75
f 35/35/76 27/27/76 30/30/76
f 36/36/77 29/29/77 28/28/77
f 36/36/78 37/37/78 29/29/78
f 36/36/79 44/44/79 37/37/79
f 33/33/80 42/42/80 36/36/80
f 45/45/81 34/34/81 38/38/81
f 42/42/82 34/34/82 45/45/82
f 46/46/83 39/39/83 40/40/83
f 46/46/84 37/37/84 39/39/84
f 46/46/85 38/38/85 37/37/85
f 41/41/86 40/40/86 31/31/86
f 47/47/87 40/40/87 41/41/87
f 47/47/88 35/35/88 43/43/88
f 41/41/89 35/35/89 47/47/89
f 48/48/90 37/37/90 44/44/90
f 48/48/91 39/39/91 37/37/91
f 48/48/92 43/43/92 39/39/92
f 44/44/93 42/42/93 45/45/93
f 36/36/94 42/42/94 44/44/94
f 49/49/95 38/38/95 46/46/95
f 45/45/96 38/38/96 49/49/96
f 47/47/97 46/46/97 40/40/97
f 50/50/98 46/46/98 47/47/98
f 50/50/99 43/43/99 48/48/99
f 47/47/100 43/43/100 50/50/100
f 48/48/101 45/45/101 49/49/101
f 44/44/102 45/45/102 48/48/102
f 49/49/103 46/46/103 50/50/103
f 48/48/104 49/49/104 50/50/104
