#
# Created for Leeds COMP 5821M Autumn 2020
#
# Generated from file test/cube.tri
# Using Vertex Normals
#
# Vertex Count 8
# Face Count   12
# Texture Coordinates are theta/phi on sphere from normal vector
#
v 0 0 0
v 1 0 0
v 1 0 1
v 0 0 1
v 0 1 0
v 1 1 0
v 0 1 1
v 1 1 1
vn -0.57735 -0.57735 -0.57735
vn 0.57735 -0.57735 -0.57735
vn 0.57735 -0.57735 0.57735
vn -0.57735 -0.57735 0.57735
vn -0.57735 0.57735 -0.57735
vn 0.57735 0.57735 -0.57735
vn -0.57735 0.57735 0.57735
vn 0.57735 0.57735 0.57735
vt 0.125 0.304087 0
vt 0.375 0.304087 0
vt 0.375 0.695913 0
vt 0.125 0.695913 0
vt 0.875 0.304087 0
vt 0.625 0.304087 0
vt 0.875 0.695913 0
vt 0.625 0.695913 0
f 1/1/1 2/2/2 3/3/3
f 1/1/1 3/3/3 4/4/4
f 1/1/1 5/5/5 6/6/6
f 1/1/1 6/6/6 2/2/2
f 1/1/1 4/4/4 7/7/7
f 1/1/1 7/7/7 5/5/5
f 2/2/2 6/6/6 3/3/3
f 6/6/6 8/8/8 3/3/3
f 4/4/4 3/3/3 7/7/7
f 3/3/3 8/8/8 7/7/7
f 7/7/7 8/8/8 6/6/6
f 7/7/7 6/6/6 5/5/5
