#
# Created for Leeds COMP 5821M Autumn 2020
#
# Generated from file test/cube.tri
# Using Face Normals
#
# Vertex Count 8
# Face Count   12
# Texture Coordinates are theta/phi on sphere from normal vector
#
v 0 0 0
v 1 0 0
v 1 0 1
v 0 0 1
v 0 1 0
v 1 1 0
v 0 1 1
v 1 1 1
vn 0 -1 0
vn 0 -1 0
vn 0 0 -1
vn 0 0 -1
vn -1 0 0
vn -1 0 0
vn 1 0 0
vn 1 0 -0
vn 0 0 1
vn 0 -0 1
vn -0 1 0
vn 0 1 0
vt 0.125 0.304087 0
vt 0.375 0.304087 0
vt 0.375 0.695913 0
vt 0.125 0.695913 0
vt 0.875 0.304087 0
vt 0.625 0.304087 0
vt 0.875 0.695913 0
vt 0.625 0.695913 0
f 1/1/1 2/2/1 3/3/1
f 1/1/2 3/3/2 4/4/2
f 1/1/3 5/5/3 6/6/3
f 1/1/4 6/6/4 2/2/4
f 1/1/5 4/4/5 7/7/5
f 1/1/6 7/7/6 5/5/6
f 2/2/7 6/6/7 3/3/7
f 6/6/8 8/8/8 3/3/8
f 4/4/9 3/3/9 7/7/9
f 3/3/10 8/8/10 7/7/10
f 7/7/11 8/8/11 6/6/11
f 7/7/12 6/6/12 5/5/12
