#
# Created for Leeds COMP 5821M Autumn 2020
#
# Generated from file test/dodecahedron.tri
# Using Face Normals
#
# Vertex Count 20
# Face Count   36
# Texture Coordinates are theta/phi on sphere from normal vector
#
v 1 1 1
v 0.61803 1.61803 0
v -0.61803 1.61803 0
v -1 1 1
v 0 0.61803 1.61803
v 1.61803 0 0.61803
v 1.61803 0 -0.61803
v 1 1 -1
v 0 -0.61803 1.61803
v 1 -1 1
v -1.61803 0 0.61803
v -1 -1 1
v -1.61803 0 -0.61803
v -1 1 -1
v 0 0.61803 -1.61803
v -0.61803 -1.61803 0
v 0.61803 -1.61803 0
v 1 -1 -1
v 0 -0.61803 -1.61803
v -1 -1 -1
vn 0 0.850652 0.525729
vn 0 0.850652 0.525729
vn 0 0.850647 0.525738
vn 0.850651 0.52573 -6.19392e-06
vn 0.85065 0.525732 0
vn 0.850651 0.52573 6.19392e-06
vn 0.525729 0 0.850652
vn 0.525733 3.80272e-06 0.85065
vn 0.52573 -6.1529e-06 0.850651
vn -0.52573 6.19392e-06 0.850651
vn -0.525732 0 0.85065
vn -0.52573 -6.19392e-06 0.850651
vn -0.850652 0.525729 0
vn -0.85065 0.525733 -3.80272e-06
vn -0.850651 0.52573 6.1529e-06
vn 0 0.850652 -0.525729
vn 0 0.850652 -0.525729
vn 0 0.850647 -0.525738
vn 6.19392e-06 -0.850651 0.52573
vn 0 -0.85065 0.525732
vn -6.19392e-06 -0.850651 0.52573
vn 0.850647 -0.525738 0
vn 0.850652 -0.525729 0
vn 0.850652 -0.525729 0
vn 0.525729 0 -0.850652
vn 0.525729 0 -0.850652
vn 0.525738 0 -0.850647
vn -0.525729 0 -0.850652
vn -0.525729 0 -0.850652
vn -0.525738 0 -0.850647
vn -0.850652 -0.525729 0
vn -0.850652 -0.525729 -0
vn -0.850647 -0.525738 -0
vn -6.19392e-06 -0.850651 -0.52573
vn 0 -0.85065 -0.525732
vn 6.19392e-06 -0.850651 -0.52573
vt 0.68307 0.698658 0
vt 0.661896 0.465659 0
vt 0.820205 0.541754 0
vt 0.85826 0.656914 0
vt 0.661895 0.934342 0
vt 0.523058 0.639119 0
vt 0.5 0.432121 0
vt 0.637498 0.259858 0
vt 0.217664 0.82082 0
vt 0.405637 0.650764 0
vt 1 0.710538 0
vt 0.106301 0.607483 0
vt 0.982562 0.444259 0
vt 0.838104 0.265659 0
vt 0.75 0.0678791 0
vt 0.216061 0.5 0
vt 0.283939 0.5 0
vt 0.416329 0.282911 0
vt 0.25 0.210538 0
vt 0.0836709 0.282911 0
f 1/1/1 2/2/1 3/3/1
f 1/1/2 3/3/2 4/4/2
f 1/1/3 4/4/3 5/5/3
f 2/2/4 1/1/4 6/6/4
f 2/2/5 6/6/5 7/7/5
f 2/2/6 7/7/6 8/8/6
f 5/5/7 9/9/7 10/10/7
f 5/5/8 10/10/8 6/6/8
f 5/5/9 6/6/9 1/1/9
f 11/11/10 12/12/10 9/9/10
f 11/11/11 9/9/11 5/5/11
f 11/11/12 5/5/12 4/4/12
f 13/13/13 11/11/13 4/4/13
f 13/13/14 4/4/14 3/3/14
f 13/13/15 3/3/15 14/14/15
f 14/14/16 3/3/16 2/2/16
f 14/14/17 2/2/17 8/8/17
f 14/14/18 8/8/18 15/15/18
f 9/9/19 12/12/19 16/16/19
f 9/9/20 16/16/20 17/17/20
f 9/9/21 17/17/21 10/10/21
f 10/10/22 17/17/22 18/18/22
f 10/10/23 18/18/23 7/7/23
f 10/10/24 7/7/24 6/6/24
f 18/18/25 19/19/25 15/15/25
f 18/18/26 15/15/26 8/8/26
f 18/18/27 8/8/27 7/7/27
f 20/20/28 15/15/28 19/19/28
f 20/20/29 14/14/29 15/15/29
f 20/20/30 13/13/30 14/14/30
f 12/12/31 11/11/31 13/13/31
f 12/12/32 13/13/32 20/20/32
f 12/12/33 20/20/33 16/16/33
f 19/19/34 18/18/34 17/17/34
f 19/19/35 17/17/35 16/16/35
f 19/19/36 16/16/36 20/20/36
