#
# Created for Leeds COMP 5821M Autumn 2020
#
# Generated from file test/icosahedron.tri
# Using Face Normals
#
# Vertex Count 12
# Face Count   20
# Texture Coordinates are theta/phi on sphere from normal vector
#
v 0 1.61803 1
v -1 0 1.61803
v 1 0 1.61803
v 1.61803 1 0
v 0 1.61803 -1
v -1.61803 1 0
v 0 -1.61803 1
v 1.61803 -1 0
v 1 0 -1.61803
v -1 0 -1.61803
v -1.61803 -1 0
v 0 -1.61803 -1
vn 0 0.356821 0.934173
vn 0.57735 0.57735 0.57735
vn 0.356821 0.934173 0
vn -0.356821 0.934173 0
vn -0.57735 0.57735 0.57735
vn 0 -0.356821 0.934173
vn 0.934173 0 0.356821
vn 0.57735 0.57735 -0.57735
vn -0.57735 0.57735 -0.57735
vn -0.934173 0 0.356821
vn 0.57735 -0.57735 0.57735
vn 0.934173 0 -0.356821
vn 0 0.356821 -0.934173
vn -0.934173 -0 -0.356821
vn -0.57735 -0.57735 0.57735
vn 0.356821 -0.934173 0
vn 0.57735 -0.57735 -0.57735
vn 0 -0.356821 -0.934173
vn -0.57735 -0.57735 -0.57735
vn -0.356821 -0.934173 0
vt 0.75 0.676208 0
vt 1 0.823792 0
vt 0.5 0.823792 0
vt 0.588104 0.5 0
vt 0.75 0.323792 0
vt 0.911896 0.5 0
vt 0.25 0.676208 0
vt 0.411896 0.5 0
vt 0.5 0.176208 0
vt 1 0.176208 0
vt 0.0881041 0.5 0
vt 0.25 0.323792 0
f 1/1/1 2/2/1 3/3/1
f 1/1/2 3/3/2 4/4/2
f 1/1/3 4/4/3 5/5/3
f 1/1/4 5/5/4 6/6/4
f 1/1/5 6/6/5 2/2/5
f 3/3/6 2/2/6 7/7/6
f 4/4/7 3/3/7 8/8/7
f 5/5/8 4/4/8 9/9/8
f 6/6/9 5/5/9 10/10/9
f 2/2/10 6/6/10 11/11/10
f 3/3/11 7/7/11 8/8/11
f 4/4/12 8/8/12 9/9/12
f 5/5/13 9/9/13 10/10/13
f 6/6/14 10/10/14 11/11/14
f 2/2/15 11/11/15 7/7/15
f 12/12/16 8/8/16 7/7/16
f 12/12/17 9/9/17 8/8/17
f 12/12/18 10/10/18 9/9/18
f 12/12/19 11/11/19 10/10/19
f 12/12/20 7/7/20 11/11/20
