#
# Created for Leeds COMP 5821M Autumn 2020
#
# Generated from file test/many.tri
# Using Face Normals
#
# Vertex Count 54
# Face Count   72
# Texture Coordinates are theta/phi on sphere from normal vector
#
v 1 5 5.5
v 1.5 5 5
v 1 5.5 5
v 0.5 5 5
v 1 4.5 5
v 1 5 4.5
v 1 5 3.5
v 1.5 5 3
v 1 5.5 3
v 0.5 5 3
v 1 4.5 3
v 1 5 2.5
v 1 5 1.5
v 1.5 5 1
v 1 5.5 1
v 0.5 5 1
v 1 4.5 1
v 1 5 0.5
v 1 3 5.5
v 1.5 3 5
v 1 3.5 5
v 0.5 3 5
v 1 2.5 5
v 1 3 4.5
v 1 3 3.5
v 1.5 3 3
v 1 3.5 3
v 0.5 3 3
v 1 2.5 3
v 1 3 2.5
v 1 3 1.5
v 1.5 3 1
v 1 3.5 1
v 0.5 3 1
v 1 2.5 1
v 1 3 0.5
v 1 1 5.5
v 1.5 1 5
v 1 1.5 5
v 0.5 1 5
v 1 0.5 5
v 1 1 4.5
v 1 1 3.5
v 1.5 1 3
v 1 1.5 3
v 0.5 1 3
v 1 0.5 3
v 1 1 2.5
v 1 1 1.5
v 1.5 1 1
v 1 1.5 1
v 0.5 1 1
v 1 0.5 1
v 1 1 0.5
vn 0.57735 0.57735 0.57735
vn -0.57735 0.57735 0.57735
vn 0.57735 -0.57735 0.57735
vn 0.57735 0.57735 -0.57735
vn -0.57735 -0.57735 0.57735
vn -0.57735 0.57735 -0.57735
vn 0.57735 -0.57735 -0.57735
vn -0.57735 -0.57735 -0.57735
vn 0.57735 0.57735 0.57735
vn -0.57735 0.57735 0.57735
vn 0.57735 -0.57735 0.57735
vn 0.57735 0.57735 -0.57735
vn -0.57735 -0.57735 0.57735
vn -0.57735 0.57735 -0.57735
vn 0.57735 -0.57735 -0.57735
vn -0.57735 -0.57735 -0.57735
vn 0.57735 0.57735 0.57735
vn -0.57735 0.57735 0.57735
vn 0.57735 -0.57735 0.57735
vn 0.57735 0.57735 -0.57735
vn -0.57735 -0.57735 0.57735
vn -0.57735 0.57735 -0.57735
vn 0.57735 -0.57735 -0.57735
vn -0.57735 -0.57735 -0.57735
vn 0.57735 0.57735 0.57735
vn -0.57735 0.57735 0.57735
vn 0.57735 -0.57735 0.57735
vn 0.57735 0.57735 -0.57735
vn -0.57735 -0.57735 0.57735
vn -0.57735 0.57735 -0.57735
vn 0.57735 -0.57735 -0.57735
vn -0.57735 -0.57735 -0.57735
vn 0.57735 0.57735 0.57735
vn -0.57735 0.57735 0.57735
vn 0.57735 -0.57735 0.57735
vn 0.57735 0.57735 -0.57735
vn -0.57735 -0.57735 0.57735
vn -0.57735 0.57735 -0.57735
vn 0.57735 -0.57735 -0.57735
vn -0.57735 -0.57735 -0.57735
vn 0.57735 0.57735 0.57735
vn -0.57735 0.57735 0.57735
vn 0.57735 -0.57735 0.57735
vn 0.57735 0.57735 -0.57735
vn -0.57735 -0.57735 0.57735
vn -0.57735 0.57735 -0.57735
vn 0.57735 -0.57735 -0.57735
vn -0.57735 -0.57735 -0.57735
vn 0.57735 0.57735 0.57735
vn -0.57735 0.57735 0.57735
vn 0.57735 -0.57735 0.57735
vn 0.57735 0.57735 -0.57735
vn -0.57735 -0.57735 0.57735
vn -0.57735 0.57735 -0.57735
vn 0.57735 -0.57735 -0.57735
vn -0.57735 -0.57735 -0.57735
vn 0.57735 0.57735 0.57735
vn -0.57735 0.57735 0.57735
vn 0.57735 -0.57735 0.57735
vn 0.57735 0.57735 -0.57735
vn -0.57735 -0.57735 0.57735
vn -0.57735 0.57735 -0.57735
vn 0.57735 -0.57735 -0.57735
vn -0.57735 -0.57735 -0.57735
vn 0.57735 0.57735 0.57735
vn -0.57735 0.57735 0.57735
vn 0.57735 -0.57735 0.57735
vn 0.57735 0.57735 -0.57735
vn -0.57735 -0.57735 0.57735
vn -0.57735 0.57735 -0.57735
vn 0.57735 -0.57735 -0.57735
vn -0.57735 -0.57735 -0.57735
vt 0.5 1 0
vt 0.5 0.5 0
vt 0.75 0.5 0
vt 1 0.5 0
vt 0.25 0.5 0
vt 0.5 2.40317e-08 0
vt 0.5 1 0
vt 0.5 0.5 0
vt 0.75 0.5 0
vt 1 0.5 0
vt 0.25 0.5 0
vt 0.5 2.40317e-08 0
vt 0.5 1 0
vt 0.5 0.5 0
vt 0.75 0.5 0
vt 1 0.5 0
vt 0.25 0.5 0
vt 0.5 2.40317e-08 0
vt 0.5 1 0
vt 0.5 0.5 0
vt 0.75 0.5 0
vt 1 0.5 0
vt 0.25 0.5 0
vt 0.5 2.40317e-08 0
vt 0.5 1 0
vt 0.5 0.5 0
vt 0.75 0.5 0
vt 1 0.5 0
vt 0.25 0.5 0
vt 0.5 2.40317e-08 0
vt 0.5 1 0
vt 0.5 0.5 0
vt 0.75 0.5 0
vt 1 0.5 0
vt 0.25 0.5 0
vt 0.5 2.40317e-08 0
vt 0.5 1 0
vt 0.5 0.5 0
vt 0.75 0.5 0
vt 1 0.5 0
vt 0.25 0.5 0
vt 0.5 2.40317e-08 0
vt 0.5 1 0
vt 0.5 0.5 0
vt 0.75 0.5 0
vt 1 0.5 0
vt 0.25 0.5 0
vt 0.5 2.40317e-08 0
vt 0.5 1 0
vt 0.5 0.5 0
vt 0.75 0.5 0
vt 1 0.5 0
vt 0.25 0.5 0
vt 0.5 2.40317e-08 0
f 1/1/1 2/2/1 3/3/1
f 1/1/2 3/3/2 4/4/2
f 5/5/3 2/2/3 1/1/3
f 3/3/4 2/2/4 6/6/4
f 1/1/5 4/4/5 5/5/5
f 3/3/6 6/6/6 4/4/6
f 6/6/7 2/2/7 5/5/7
f 4/4/8 6/6/8 5/5/8
f 7/7/9 8/8/9 9/9/9
f 7/7/10 9/9/10 10/10/10
f 11/11/11 8/8/11 7/7/11
f 9/9/12 8/8/12 12/12/12
f 7/7/13 10/10/13 11/11/13
f 9/9/14 12/12/14 10/10/14
f 12/12/15 8/8/15 11/11/15
f 10/10/16 12/12/16 11/11/16
f 13/13/17 14/14/17 15/15/17
f 13/13/18 15/15/18 16/16/18
f 17/17/19 14/14/19 13/13/19
f 15/15/20 14/14/20 18/18/20
f 13/13/21 16/16/21 17/17/21
f 15/15/22 18/18/22 16/16/22
f 18/18/23 14/14/23 17/17/23
f 16/16/24 18/18/24 17/17/24
f 19/19/25 20/20/25 21/21/25
f 19/19/26 21/21/26 22/22/26
f 23/23/27 20/20/27 19/19/27
f 21/21/28 20/20/28 24/24/28
f 19/19/29 22/22/29 23/23/29
f 21/21/30 24/24/30 22/22/30
f 24/24/31 20/20/31 23/23/31
f 22/22/32 24/24/32 23/23/32
f 25/25/33 26/26/33 27/27/33
f 25/25/34 27/27/34 28/28/34
f 29/29/35 26/26/35 25/25/35
f 27/27/36 26/26/36 30/30/36
f 25/25/37 28/28/37 29/29/37
f 27/27/38 30/30/38 28/28/38
f 30/30/39 26/26/39 29/29/39
f 28/28/40 30/30/40 29/29/40
f 31/31/41 32/32/41 33/33/41
f 31/31/42 33/33/42 34/34/42
f 35/35/43 32/32/43 31/31/43
f 33/33/44 32/32/44 36/36/44
f 31/31/45 34/34/45 35/35/45
f 33/33/46 36/36/46 34/34/46
f 36/36/47 32/32/47 35/35/47
f 34/34/48 36/36/48 35/35/48
f 37/37/49 38/38/49 39/39/49
f 37/37/50 39/39/50 40/40/50
f 41/41/51 38/38/51 37/37/51
f 39/39/52 38/38/52 42/42/52
f 37/37/53 40/40/53 41/41/53
f 39/39/54 42/42/54 40/40/54
f 42/42/55 38/38/55 41/41/55
f 40/40/56 42/42/56 41/41/56
f 43/43/57 44/44/57 45/45/57
f 43/43/58 45/45/58 46/46/58
f 47/47/59 44/44/59 43/43/59
f 45/45/60 44/44/60 48/48/60
f 43/43/61 46/46/61 47/47/61
f 45/45/62 48/48/62 46/46/62
f 48/48/63 44/44/63 47/47/63
f 46/46/64 48/48/64 47/47/64
f 49/49/65 50/50/65 51/51/65
f 49/49/66 51/51/66 52/52/66
f 53/53/67 50/50/67 49/49/67
f 51/51/68 50/50/68 54/54/68
f 49/49/69 52/52/69 53/53/69
f 51/51/70 54/54/70 52/52/70
f 54/54/71 50/50/71 53/53/71
f 52/52/72 54/54/72 53/53/72
