#
# Created for Leeds COMP 5821M Autumn 2020
#
# Generated from file test/octahedron.tri
# Using Face Normals
#
# Vertex Count 6
# Face Count   8
# Texture Coordinates are theta/phi on sphere from normal vector
#
v 0 0 1
v 1 0 0
v 0 1 0
v -1 0 0
v 0 -1 0
v 0 0 -1
vn 0.57735 0.57735 0.57735
vn -0.57735 0.57735 0.57735
vn -0.57735 -0.57735 0.57735
vn 0.57735 -0.57735 0.57735
vn -0.57735 0.57735 -0.57735
vn 0.57735 0.57735 -0.57735
vn 0.57735 -0.57735 -0.57735
vn -0.57735 -0.57735 -0.57735
vt 0.5 1 0
vt 0.5 0.5 0
vt 0.75 0.5 0
vt 1 0.5 0
vt 0.25 0.5 0
vt 0.5 2.40317e-08 0
f 1/1/1 2/2/1 3/3/1
f 1/1/2 3/3/2 4/4/2
f 1/1/3 4/4/3 5/5/3
f 1/1/4 5/5/4 2/2/4
f 6/6/5 4/4/5 3/3/5
f 6/6/6 3/3/6 2/2/6
f 6/6/7 2/2/7 5/5/7
f 6/6/8 5/5/8 4/4/8
