#
# Created for Leeds COMP 5821M Autumn 2020
#
# Generated from file test/quadtorus.tri
# Using Vertex Normals
#
# Vertex Count 78
# Face Count   168
# Texture Coordinates are theta/phi on sphere from normal vector
#
v 1 5 5.5
v 1.5 5 5
v 1 5.5 5
v 0.5 5 5
v 1.5 4 5
v 1 4 5.5
v 1 5.5 4
v 1.5 5 4
v 0.5 4 5
v 0.5 5 4
v 1 4.5 4
v 1 4 4.5
v 1.5 3 5
v 1 3 5.5
v 1 5.5 3
v 1.5 5 3
v 0.5 3 5
v 0.5 5 3
v 1 4 3.5
v 1.5 4 3
v 1 3.5 4
v 1.5 3 4
v 1.5 2 5
v 1 2 5.5
v 1 5.5 2
v 1.5 5 2
v 0.5 2 5
v 0.5 3 4
v 0.5 4 3
v 0.5 5 2
v 1 4.5 2
v 1 4 2.5
v 1.5 3 3
v 1 2.5 4
v 1 2 4.5
v 1.5 1 5
v 1 1 5.5
v 1 5.5 1
v 1.5 5 1
v 0.5 1 5
v 0.5 3 3
v 0.5 5 1
v 1 4 1.5
v 1.5 4 1
v 1 3.5 2
v 1.5 3 2
v 1 2 3.5
v 1.5 2 3
v 1 1.5 4
v 1.5 1 4
v 1 0.5 5
v 1 5 0.5
v 0.5 1 4
v 0.5 2 3
v 0.5 3 2
v 0.5 4 1
v 1 4 0.5
v 1.5 3 1
v 1 2.5 2
v 1 2 2.5
v 1.5 1 3
v 1 0.5 4
v 0.5 1 3
v 0.5 3 1
v 1 3 0.5
v 1 2 1.5
v 1.5 2 1
v 1 1.5 2
v 1.5 1 2
v 1 0.5 3
v 0.5 1 2
v 0.5 2 1
v 1 2 0.5
v 1.5 1 1
v 1 0.5 2
v 0.5 1 1
v 1 1 0.5
v 1 0.5 1
vn 0.199477 0.325744 0.924175
vn 0.97992 0.191973 0.0538724
vn -0.199477 0.924175 0.325744
vn -0.97992 0.0538724 0.191973
vn 0.980581 0 0.196116
vn 0 0 1
vn 0 1 0
vn 0.980581 0.196116 0
vn -0.980581 0 0.196116
vn -0.980581 0.196116 0
vn -1.47738e-08 -1 0
vn -1.47738e-08 0 -1
vn 0.999882 0 0.0153979
vn 0 0 1
vn 0 1 0
vn 0.999882 0.0153979 0
vn -0.999882 0 0.0153979
vn -0.999882 0.0153979 0
vn -1.47738e-08 0 1
vn 1 0 0
vn -1.47738e-08 1 0
vn 1 0 0
vn 0.980581 0 0.196116
vn 0 0 1
vn 0 1 0
vn 0.980581 0.196116 0
vn -0.980581 0 0.196116
vn -1 0 0
vn -1 0 0
vn -0.980581 0.196116 0
vn -1.47738e-08 -1 0
vn -1.47738e-08 0 -1
vn 1 0 0
vn -1.47738e-08 -1 0
vn -1.47738e-08 0 -1
vn 0.97992 -0.0538724 0.191973
vn -0.199477 -0.325744 0.924175
vn 0.199477 0.924175 -0.325744
vn 0.97992 0.0538724 -0.191973
vn -0.97992 -0.191973 0.0538724
vn -1 0 0
vn -0.97992 0.191973 -0.0538724
vn -1.47738e-08 0 1
vn 0.980581 0 -0.196116
vn -1.47738e-08 1 0
vn 1 0 0
vn -1.47738e-08 0 1
vn 1 0 0
vn -1.47738e-08 1 0
vn 0.980581 -0.196116 0
vn 0.199477 -0.924175 0.325744
vn -0.199477 0.325744 -0.924175
vn -0.980581 -0.196116 0
vn -1 0 0
vn -1 0 0
vn -0.980581 0 -0.196116
vn 0 0 -1
vn 0.999882 0 -0.0153979
vn -1.47738e-08 -1 0
vn -1.47738e-08 0 -1
vn 0.999882 -0.0153979 0
vn 0 -1 0
vn -0.999882 -0.0153979 0
vn -0.999882 0 -0.0153979
vn 0 0 -1
vn -1.47738e-08 0 1
vn 0.980581 0 -0.196116
vn -1.47738e-08 1 0
vn 0.980581 -0.196116 0
vn 0 -1 0
vn -0.980581 -0.196116 0
vn -0.980581 0 -0.196116
vn 0 0 -1
vn 0.97992 -0.191973 -0.0538724
vn 0 -1 0
vn -0.97992 -0.0538724 -0.191973
vn 0.199477 -0.325744 -0.924175
vn -0.199477 -0.924175 -0.325744
vt 0.66255 0.875246 0
vt 0.53079 0.517156 0
vt 0.783833 0.605615 0
vt 0.991259 0.561489 0
vt 0.5 0.562833 0
vt 0.5 1 0
vt 0.75 0.5 0
vt 0.531416 0.5 0
vt 1 0.562833 0
vt 0.968584 0.5 0
vt 0.25 0.5 0
vt 0.5 2.40317e-08 0
vt 0.5 0.504902 0
vt 0.5 1 0
vt 0.75 0.5 0
vt 0.502451 0.5 0
vt 1 0.504902 0
vt 0.997549 0.5 0
vt 0.5 1 0
vt 0.5 0.5 0
vt 0.75 0.5 0
vt 0.5 0.5 0
vt 0.5 0.562833 0
vt 0.5 1 0
vt 0.75 0.5 0
vt 0.531416 0.5 0
vt 1 0.562833 0
vt 1 0.5 0
vt 1 0.5 0
vt 0.968584 0.5 0
vt 0.25 0.5 0
vt 0.5 2.40317e-08 0
vt 0.5 0.5 0
vt 0.25 0.5 0
vt 0.5 2.40317e-08 0
vt 0.491259 0.561489 0
vt 0.16255 0.875246 0
vt 0.716167 0.394385 0
vt 0.508741 0.438511 0
vt 0.0307896 0.517156 0
vt 1 0.5 0
vt 0.96921 0.482844 0
vt 0.5 1 0
vt 0.5 0.437167 0
vt 0.75 0.5 0
vt 0.5 0.5 0
vt 0.5 1 0
vt 0.5 0.5 0
vt 0.75 0.5 0
vt 0.468584 0.5 0
vt 0.283833 0.605615 0
vt 0.83745 0.124754 0
vt 0.0314165 0.5 0
vt 1 0.5 0
vt 1 0.5 0
vt 1 0.437167 0
vt 0.5 2.40317e-08 0
vt 0.5 0.495098 0
vt 0.25 0.5 0
vt 0.5 2.40317e-08 0
vt 0.497549 0.5 0
vt 0.25 0.5 0
vt 0.00245077 0.5 0
vt 1 0.495098 0
vt 0.5 2.40317e-08 0
vt 0.5 1 0
vt 0.5 0.437167 0
vt 0.75 0.5 0
vt 0.468584 0.5 0
vt 0.25 0.5 0
vt 0.0314165 0.5 0
vt 1 0.437167 0
vt 0.5 2.40317e-08 0
vt 0.46921 0.482844 0
vt 0.25 0.5 0
vt 0.00874096 0.438511 0
vt 0.33745 0.124754 0
vt 0.216167 0.394385 0
f 1/1/1 2/2/2 3/3/3
f 1/1/1 3/3/3 4/4/4
f 1/1/1 5/5/5 2/2/2
f 6/6/6 5/5/5 1/1/1
f 7/7/7 2/2/2 8/8/8
f 3/3/3 2/2/2 7/7/7
f 6/6/6 4/4/4 9/9/9
f 1/1/1 4/4/4 6/6/6
f 10/10/10 3/3/3 7/7/7
f 4/4/4 3/3/3 10/10/10
f 2/2/2 11/11/11 8/8/8
f 2/2/2 12/12/12 11/11/11
f 2/2/2 5/5/5 12/12/12
f 6/6/6 13/13/13 5/5/5
f 14/14/14 13/13/13 6/6/6
f 15/15/15 8/8/8 16/16/16
f 7/7/7 8/8/8 15/15/15
f 14/14/14 9/9/9 17/17/17
f 6/6/6 9/9/9 14/14/14
f 4/4/4 12/12/12 9/9/9
f 4/4/4 11/11/11 12/12/12
f 4/4/4 10/10/10 11/11/11
f 18/18/18 7/7/7 15/15/15
f 10/10/10 7/7/7 18/18/18
f 16/16/16 19/19/19 20/20/20
f 16/16/16 11/11/11 19/19/19
f 16/16/16 8/8/8 11/11/11
f 13/13/13 12/12/12 5/5/5
f 13/13/13 21/21/21 12/12/12
f 13/13/13 22/22/22 21/21/21
f 14/14/14 23/23/23 13/13/13
f 24/24/24 23/23/23 14/14/14
f 25/25/25 16/16/16 26/26/26
f 15/15/15 16/16/16 25/25/25
f 24/24/24 17/17/17 27/27/27
f 14/14/14 17/17/17 24/24/24
f 17/17/17 21/21/21 28/28/28
f 17/17/17 12/12/12 21/21/21
f 17/17/17 9/9/9 12/12/12
f 18/18/18 11/11/11 10/10/10
f 18/18/18 19/19/19 11/11/11
f 18/18/18 29/29/29 19/19/19
f 30/30/30 15/15/15 25/25/25
f 18/18/18 15/15/15 30/30/30
f 16/16/16 31/31/31 26/26/26
f 16/16/16 32/32/32 31/31/31
f 16/16/16 20/20/20 32/32/32
f 33/33/33 21/21/21 22/22/22
f 33/33/33 19/19/19 21/21/21
f 33/33/33 20/20/20 19/19/19
f 13/13/13 34/34/34 22/22/22
f 13/13/13 35/35/35 34/34/34
f 13/13/13 23/23/23 35/35/35
f 24/24/24 36/36/36 23/23/23
f 37/37/37 36/36/36 24/24/24
f 38/38/38 26/26/26 39/39/39
f 25/25/25 26/26/26 38/38/38
f 37/37/37 27/27/27 40/40/40
f 24/24/24 27/27/27 37/37/37
f 17/17/17 35/35/35 27/27/27
f 17/17/17 34/34/34 35/35/35
f 17/17/17 28/28/28 34/34/34
f 41/41/41 19/19/19 29/29/29
f 41/41/41 21/21/21 19/19/19
f 41/41/41 28/28/28 21/21/21
f 18/18/18 32/32/32 29/29/29
f 18/18/18 31/31/31 32/32/32
f 18/18/18 30/30/30 31/31/31
f 42/42/42 25/25/25 38/38/38
f 30/30/30 25/25/25 42/42/42
f 39/39/39 43/43/43 44/44/44
f 39/39/39 31/31/31 43/43/43
f 39/39/39 26/26/26 31/31/31
f 33/33/33 32/32/32 20/20/20
f 33/33/33 45/45/45 32/32/32
f 33/33/33 46/46/46 45/45/45
f 33/33/33 47/47/47 48/48/48
f 33/33/33 34/34/34 47/47/47
f 33/33/33 22/22/22 34/34/34
f 36/36/36 35/35/35 23/23/23
f 36/36/36 49/49/49 35/35/35
f 36/36/36 50/50/50 49/49/49
f 51/51/51 36/36/36 37/37/37
f 38/38/38 39/39/39 52/52/52
f 37/37/37 40/40/40 51/51/51
f 40/40/40 49/49/49 53/53/53
f 40/40/40 35/35/35 49/49/49
f 40/40/40 27/27/27 35/35/35
f 41/41/41 34/34/34 28/28/28
f 41/41/41 47/47/47 34/34/34
f 41/41/41 54/54/54 47/47/47
f 41/41/41 45/45/45 55/55/55
f 41/41/41 32/32/32 45/45/45
f 41/41/41 29/29/29 32/32/32
f 42/42/42 31/31/31 30/30/30
f 42/42/42 43/43/43 31/31/31
f 42/42/42 56/56/56 43/43/43
f 38/38/38 52/52/52 42/42/42
f 57/57/57 39/39/39 44/44/44
f 52/52/52 39/39/39 57/57/57
f 58/58/58 45/45/45 46/46/46
f 58/58/58 43/43/43 45/45/45
f 58/58/58 44/44/44 43/43/43
f 33/33/33 59/59/59 46/46/46
f 33/33/33 60/60/60 59/59/59
f 33/33/33 48/48/48 60/60/60
f 61/61/61 49/49/49 50/50/50
f 61/61/61 47/47/47 49/49/49
f 61/61/61 48/48/48 47/47/47
f 51/51/51 50/50/50 36/36/36
f 62/62/62 50/50/50 51/51/51
f 62/62/62 40/40/40 53/53/53
f 51/51/51 40/40/40 62/62/62
f 63/63/63 47/47/47 54/54/54
f 63/63/63 49/49/49 47/47/47
f 63/63/63 53/53/53 49/49/49
f 41/41/41 60/60/60 54/54/54
f 41/41/41 59/59/59 60/60/60
f 41/41/41 55/55/55 59/59/59
f 64/64/64 43/43/43 56/56/56
f 64/64/64 45/45/45 43/43/43
f 64/64/64 55/55/55 45/45/45
f 56/56/56 52/52/52 57/57/57
f 42/42/42 52/52/52 56/56/56
f 65/65/65 44/44/44 58/58/58
f 57/57/57 44/44/44 65/65/65
f 58/58/58 66/66/66 67/67/67
f 58/58/58 59/59/59 66/66/66
f 58/58/58 46/46/46 59/59/59
f 61/61/61 60/60/60 48/48/48
f 61/61/61 68/68/68 60/60/60
f 61/61/61 69/69/69 68/68/68
f 62/62/62 61/61/61 50/50/50
f 70/70/70 61/61/61 62/62/62
f 70/70/70 53/53/53 63/63/63
f 62/62/62 53/53/53 70/70/70
f 63/63/63 68/68/68 71/71/71
f 63/63/63 60/60/60 68/68/68
f 63/63/63 54/54/54 60/60/60
f 64/64/64 59/59/59 55/55/55
f 64/64/64 66/66/66 59/59/59
f 64/64/64 72/72/72 66/66/66
f 64/64/64 57/57/57 65/65/65
f 56/56/56 57/57/57 64/64/64
f 73/73/73 58/58/58 67/67/67
f 65/65/65 58/58/58 73/73/73
f 74/74/74 68/68/68 69/69/69
f 74/74/74 66/66/66 68/68/68
f 74/74/74 67/67/67 66/66/66
f 70/70/70 69/69/69 61/61/61
f 75/75/75 69/69/69 70/70/70
f 75/75/75 63/63/63 71/71/71
f 70/70/70 63/63/63 75/75/75
f 76/76/76 66/66/66 72/72/72
f 76/76/76 68/68/68 66/66/66
f 76/76/76 71/71/71 68/68/68
f 72/72/72 65/65/65 73/73/73
f 64/64/64 65/65/65 72/72/72
f 77/77/77 67/67/67 74/74/74
f 73/73/73 67/67/67 77/77/77
f 75/75/75 74/74/74 69/69/69
f 78/78/78 74/74/74 75/75/75
f 78/78/78 71/71/71 76/76/76
f 75/75/75 71/71/71 78/78/78
f 76/76/76 73/73/73 77/77/77
f 72/72/72 73/73/73 76/76/76
f 77/77/77 74/74/74 78/78/78
f 76/76/76 77/77/77 78/78/78
