#
# Created for Leeds COMP 5821M Autumn 2020
#
# Sphere
# Slices: 6
# Segments: 6
#
v  0.0000  0.0000  1.0000
v  0.0000  0.0000 -1.0000
v  0.0000  0.5000  0.8660
v  0.4330  0.2500  0.8660
v  0.4330 -0.2500  0.8660
v -0.0000 -0.5000  0.8660
v -0.4330 -0.2500  0.8660
v -0.4330  0.2500  0.8660
v  0.0000  0.8660  0.5000
v  0.7500  0.4330  0.5000
v  0.7500 -0.4330  0.5000
v -0.0000 -0.8660  0.5000
v -0.7500 -0.4330  0.5000
v -0.7500  0.4330  0.5000
v  0.0000  1.0000  0.0000
v  0.8660  0.5000  0.0000
v  0.8660 -0.5000  0.0000
v -0.0000 -1.0000  0.0000
v -0.8660 -0.5000  0.0000
v -0.8660  0.5000  0.0000
v  0.0000  0.8660 -0.5000
v  0.7500  0.4330 -0.5000
v  0.7500 -0.4330 -0.5000
v -0.0000 -0.8660 -0.5000
v -0.7500 -0.4330 -0.5000
v -0.7500  0.4330 -0.5000
v  0.0000  0.5000 -0.8660
v  0.4330  0.2500 -0.8660
v  0.4330 -0.2500 -0.8660
v -0.0000 -0.5000 -0.8660
v -0.4330 -0.2500 -0.8660
v -0.4330  0.2500 -0.8660
vn  0.0000  0.0000  1.0000
vn  0.0000  0.0000 -1.0000
vn  0.0000  0.5000  0.8660
vn  0.4330  0.2500  0.8660
vn  0.4330 -0.2500  0.8660
vn -0.0000 -0.5000  0.8660
vn -0.4330 -0.2500  0.8660
vn -0.4330  0.2500  0.8660
vn  0.0000  0.8660  0.5000
vn  0.7500  0.4330  0.5000
vn  0.7500 -0.4330  0.5000
vn -0.0000 -0.8660  0.5000
vn -0.7500 -0.4330  0.5000
vn -0.7500  0.4330  0.5000
vn  0.0000  1.0000  0.0000
vn  0.8660  0.5000  0.0000
vn  0.8660 -0.5000  0.0000
vn -0.0000 -1.0000  0.0000
vn -0.8660 -0.5000  0.0000
vn -0.8660  0.5000  0.0000
vn  0.0000  0.8660 -0.5000
vn  0.7500  0.4330 -0.5000
vn  0.7500 -0.4330 -0.5000
vn -0.0000 -0.8660 -0.5000
vn -0.7500 -0.4330 -0.5000
vn -0.7500  0.4330 -0.5000
vn  0.0000  0.5000 -0.8660
vn  0.4330  0.2500 -0.8660
vn  0.4330 -0.2500 -0.8660
vn -0.0000 -0.5000 -0.8660
vn -0.4330 -0.2500 -0.8660
vn -0.4330  0.2500 -0.8660
vt  0.0833  1.0000  0.0000
vt  0.2500  1.0000  0.0000
vt  0.4167  1.0000  0.0000
vt  0.5833  1.0000  0.0000
vt  0.7500  1.0000  0.0000
vt  0.9167  1.0000  0.0000
vt  0.0833  0.0000  0.0000
vt  0.2500  0.0000  0.0000
vt  0.4167  0.0000  0.0000
vt  0.5833  0.0000  0.0000
vt  0.7500  0.0000  0.0000
vt  0.9167  0.0000  0.0000
vt  0.0000  0.8333  0.0000
vt  0.1667  0.8333  0.0000
vt  0.3333  0.8333  0.0000
vt  0.5000  0.8333  0.0000
vt  0.6667  0.8333  0.0000
vt  0.8333  0.8333  0.0000
vt  1.0000  0.8333  0.0000
vt  0.0000  0.6667  0.0000
vt  0.1667  0.6667  0.0000
vt  0.3333  0.6667  0.0000
vt  0.5000  0.6667  0.0000
vt  0.6667  0.6667  0.0000
vt  0.8333  0.6667  0.0000
vt  1.0000  0.6667  0.0000
vt  0.0000  0.5000  0.0000
vt  0.1667  0.5000  0.0000
vt  0.3333  0.5000  0.0000
vt  0.5000  0.5000  0.0000
vt  0.6667  0.5000  0.0000
vt  0.8333  0.5000  0.0000
vt  1.0000  0.5000  0.0000
vt  0.0000  0.3333  0.0000
vt  0.1667  0.3333  0.0000
vt  0.3333  0.3333  0.0000
vt  0.5000  0.3333  0.0000
vt  0.6667  0.3333  0.0000
vt  0.8333  0.3333  0.0000
vt  1.0000  0.3333  0.0000
vt  0.0000  0.1667  0.0000
vt  0.1667  0.1667  0.0000
vt  0.3333  0.1667  0.0000
vt  0.5000  0.1667  0.0000
vt  0.6667  0.1667  0.0000
vt  0.8333  0.1667  0.0000
vt  1.0000  0.1667  0.0000
f 1/1/1 4/14/4 3/13/3
f 1/2/1 5/15/5 4/14/4
f 1/3/1 6/16/6 5/15/5
f 1/4/1 7/17/7 6/16/6
f 1/5/1 8/18/8 7/17/7
f 1/6/1 3/19/3 8/18/8
f 3/13/3 4/14/4 9/20/9
f 4/14/4 10/21/10 9/20/9
f 4/14/4 5/15/5 10/21/10
f 5/15/5 11/22/11 10/21/10
f 5/15/5 6/16/6 11/22/11
f 6/16/6 12/23/12 11/22/11
f 6/16/6 7/17/7 12/23/12
f 7/17/7 13/24/13 12/23/12
f 7/17/7 8/18/8 13/24/13
f 8/18/8 14/25/14 13/24/13
f 8/18/8 3/19/3 14/25/14
f 3/19/3 9/26/9 14/25/14
f 9/20/9 10/21/10 15/27/15
f 10/21/10 16/28/16 15/27/15
f 10/21/10 11/22/11 16/28/16
f 11/22/11 17/29/17 16/28/16
f 11/22/11 12/23/12 17/29/17
f 12/23/12 18/30/18 17/29/17
f 12/23/12 13/24/13 18/30/18
f 13/24/13 19/31/19 18/30/18
f 13/24/13 14/25/14 19/31/19
f 14/25/14 20/32/20 19/31/19
f 14/25/14 9/26/9 20/32/20
f 9/26/9 15/33/15 20/32/20
f 15/27/15 16/28/16 21/34/21
f 16/28/16 22/35/22 21/34/21
f 16/28/16 17/29/17 22/35/22
f 17/29/17 23/36/23 22/35/22
f 17/29/17 18/30/18 23/36/23
f 18/30/18 24/37/24 23/36/23
f 18/30/18 19/31/19 24/37/24
f 19/31/19 25/38/25 24/37/24
f 19/31/19 20/32/20 25/38/25
f 20/32/20 26/39/26 25/38/25
f 20/32/20 15/33/15 26/39/26
f 15/33/15 21/40/21 26/39/26
f 21/34/21 22/35/22 27/41/27
f 22/35/22 28/42/28 27/41/27
f 22/35/22 23/36/23 28/42/28
f 23/36/23 29/43/29 28/42/28
f 23/36/23 24/37/24 29/43/29
f 24/37/24 30/44/30 29/43/29
f 24/37/24 25/38/25 30/44/30
f 25/38/25 31/45/31 30/44/30
f 25/38/25 26/39/26 31/45/31
f 26/39/26 32/46/32 31/45/31
f 26/39/26 21/40/21 32/46/32
f 21/40/21 27/47/27 32/46/32
f 2/7/2 27/41/27 28/42/28
f 2/8/2 28/42/28 29/43/29
f 2/9/2 29/43/29 30/44/30
f 2/10/2 30/44/30 31/45/31
f 2/11/2 31/45/31 32/46/32
f 2/12/2 32/46/32 27/47/27
