#
# Created for Leeds COMP 5821M Autumn 2020
#
# Sphere
# Slices: 8
# Segments: 8
#
v  0.0000  0.0000  1.0000
v  0.0000  0.0000 -1.0000
v  0.0000  0.3827  0.9239
v  0.2706  0.2706  0.9239
v  0.3827 -0.0000  0.9239
v  0.2706 -0.2706  0.9239
v -0.0000 -0.3827  0.9239
v -0.2706 -0.2706  0.9239
v -0.3827  0.0000  0.9239
v -0.2706  0.2706  0.9239
v  0.0000  0.7071  0.7071
v  0.5000  0.5000  0.7071
v  0.7071 -0.0000  0.7071
v  0.5000 -0.5000  0.7071
v -0.0000 -0.7071  0.7071
v -0.5000 -0.5000  0.7071
v -0.7071  0.0000  0.7071
v -0.5000  0.5000  0.7071
v  0.0000  0.9239  0.3827
v  0.6533  0.6533  0.3827
v  0.9239 -0.0000  0.3827
v  0.6533 -0.6533  0.3827
v -0.0000 -0.9239  0.3827
v -0.6533 -0.6533  0.3827
v -0.9239  0.0000  0.3827
v -0.6533  0.6533  0.3827
v  0.0000  1.0000  0.0000
v  0.7071  0.7071  0.0000
v  1.0000 -0.0000  0.0000
v  0.7071 -0.7071  0.0000
v -0.0000 -1.0000  0.0000
v -0.7071 -0.7071  0.0000
v -1.0000  0.0000  0.0000
v -0.7071  0.7071  0.0000
v  0.0000  0.9239 -0.3827
v  0.6533  0.6533 -0.3827
v  0.9239 -0.0000 -0.3827
v  0.6533 -0.6533 -0.3827
v -0.0000 -0.9239 -0.3827
v -0.6533 -0.6533 -0.3827
v -0.9239  0.0000 -0.3827
v -0.6533  0.6533 -0.3827
v  0.0000  0.7071 -0.7071
v  0.5000  0.5000 -0.7071
v  0.7071 -0.0000 -0.7071
v  0.5000 -0.5000 -0.7071
v -0.0000 -0.7071 -0.7071
v -0.5000 -0.5000 -0.7071
v -0.7071  0.0000 -0.7071
v -0.5000  0.5000 -0.7071
v  0.0000  0.3827 -0.9239
v  0.2706  0.2706 -0.9239
v  0.3827 -0.0000 -0.9239
v  0.2706 -0.2706 -0.9239
v -0.0000 -0.3827 -0.9239
v -0.2706 -0.2706 -0.9239
v -0.3827  0.0000 -0.9239
v -0.2706  0.2706 -0.9239
vn  0.0000  0.0000  1.0000
vn  0.0000  0.0000 -1.0000
vn  0.0000  0.3827  0.9239
vn  0.2706  0.2706  0.9239
vn  0.3827 -0.0000  0.9239
vn  0.2706 -0.2706  0.9239
vn -0.0000 -0.3827  0.9239
vn -0.2706 -0.2706  0.9239
vn -0.3827  0.0000  0.9239
vn -0.2706  0.2706  0.9239
vn  0.0000  0.7071  0.7071
vn  0.5000  0.5000  0.7071
vn  0.7071 -0.0000  0.7071
vn  0.5000 -0.5000  0.7071
vn -0.0000 -0.7071  0.7071
vn -0.5000 -0.5000  0.7071
vn -0.7071  0.0000  0.7071
vn -0.5000  0.5000  0.7071
vn  0.0000  0.9239  0.3827
vn  0.6533  0.6533  0.3827
vn  0.9239 -0.0000  0.3827
vn  0.6533 -0.6533  0.3827
vn -0.0000 -0.9239  0.3827
vn -0.6533 -0.6533  0.3827
vn -0.9239  0.0000  0.3827
vn -0.6533  0.6533  0.3827
vn  0.0000  1.0000  0.0000
vn  0.7071  0.7071  0.0000
vn  1.0000 -0.0000  0.0000
vn  0.7071 -0.7071  0.0000
vn -0.0000 -1.0000  0.0000
vn -0.7071 -0.7071  0.0000
vn -1.0000  0.0000  0.0000
vn -0.7071  0.7071  0.0000
vn  0.0000  0.9239 -0.3827
vn  0.6533  0.6533 -0.3827
vn  0.9239 -0.0000 -0.3827
vn  0.6533 -0.6533 -0.3827
vn -0.0000 -0.9239 -0.3827
vn -0.6533 -0.6533 -0.3827
vn -0.9239  0.0000 -0.3827
vn -0.6533  0.6533 -0.3827
vn  0.0000  0.7071 -0.7071
vn  0.5000  0.5000 -0.7071
vn  0.7071 -0.0000 -0.7071
vn  0.5000 -0.5000 -0.7071
vn -0.0000 -0.7071 -0.7071
vn -0.5000 -0.5000 -0.7071
vn -0.7071  0.0000 -0.7071
vn -0.5000  0.5000 -0.7071
vn  0.0000  0.3827 -0.9239
vn  0.2706  0.2706 -0.9239
vn  0.3827 -0.0000 -0.9239
vn  0.2706 -0.2706 -0.9239
vn -0.0000 -0.3827 -0.9239
vn -0.2706 -0.2706 -0.9239
vn -0.3827  0.0000 -0.9239
vn -0.2706  0.2706 -0.9239
vt  0.0625  1.0000  0.0000
vt  0.1875  1.0000  0.0000
vt  0.3125  1.0000  0.0000
vt  0.4375  1.0000  0.0000
vt  0.5625  1.0000  0.0000
vt  0.6875  1.0000  0.0000
vt  0.8125  1.0000  0.0000
vt  0.9375  1.0000  0.0000
vt  0.0625  0.0000  0.0000
vt  0.1875  0.0000  0.0000
vt  0.3125  0.0000  0.0000
vt  0.4375  0.0000  0.0000
vt  0.5625  0.0000  0.0000
vt  0.6875  0.0000  0.0000
vt  0.8125  0.0000  0.0000
vt  0.9375  0.0000  0.0000
vt  0.0000  0.8750  0.0000
vt  0.1250  0.8750  0.0000
vt  0.2500  0.8750  0.0000
vt  0.3750  0.8750  0.0000
vt  0.5000  0.8750  0.0000
vt  0.6250  0.8750  0.0000
vt  0.7500  0.8750  0.0000
vt  0.8750  0.8750  0.0000
vt  1.0000  0.8750  0.0000
vt  0.0000  0.7500  0.0000
vt  0.1250  0.7500  0.0000
vt  0.2500  0.7500  0.0000
vt  0.3750  0.7500  0.0000
vt  0.5000  0.7500  0.0000
vt  0.6250  0.7500  0.0000
vt  0.7500  0.7500  0.0000
vt  0.8750  0.7500  0.0000
vt  1.0000  0.7500  0.0000
vt  0.0000  0.6250  0.0000
vt  0.1250  0.6250  0.0000
vt  0.2500  0.6250  0.0000
vt  0.3750  0.6250  0.0000
vt  0.5000  0.6250  0.0000
vt  0.6250  0.6250  0.0000
vt  0.7500  0.6250  0.0000
vt  0.8750  0.6250  0.0000
vt  1.0000  0.6250  0.0000
vt  0.0000  0.5000  0.0000
vt  0.1250  0.5000  0.0000
vt  0.2500  0.5000  0.0000
vt  0.3750  0.5000  0.0000
vt  0.5000  0.5000  0.0000
vt  0.6250  0.5000  0.0000
vt  0.7500  0.5000  0.0000
vt  0.8750  0.5000  0.0000
vt  1.0000  0.5000  0.0000
vt  0.0000  0.3750  0.0000
vt  0.1250  0.3750  0.0000
vt  0.2500  0.3750  0.0000
vt  0.3750  0.3750  0.0000
vt  0.5000  0.3750  0.0000
vt  0.6250  0.3750  0.0000
vt  0.7500  0.3750  0.0000
vt  0.8750  0.3750  0.0000
vt  1.0000  0.3750  0.0000
vt  0.0000  0.2500  0.0000
vt  0.1250  0.2500  0.0000
vt  0.2500  0.2500  0.0000
vt  0.3750  0.2500  0.0000
vt  0.5000  0.2500  0.0000
vt  0.6250  0.2500  0.0000
vt  0.7500  0.2500  0.0000
vt  0.8750  0.2500  0.0000
vt  1.0000  0.2500  0.0000
vt  0.0000  0.1250  0.0000
vt  0.1250  0.1250  0.0000
vt  0.2500  0.1250  0.0000
vt  0.3750  0.1250  0.0000
vt  0.5000  0.1250  0.0000
vt  0.6250  0.1250  0.0000
vt  0.7500  0.1250  0.0000
vt  0.8750  0.1250  0.0000
vt  1.0000  0.1250  0.0000
f 1/1/1 4/18/4 3/17/3
f 1/2/1 5/19/5 4/18/4
f 1/3/1 6/20/6 5/19/5
f 1/4/1 7/21/7 6/20/6
f 1/5/1 8/22/8 7/21/7
f 1/6/1 9/23/9 8/22/8
f 1/7/1 10/24/10 9/23/9
f 1/8/1 3/25/3 10/24/10
f 3/17/3 4/18/4 11/26/11
f 4/18/4 12/27/12 11/26/11
f 4/18/4 5/19/5 12/27/12
f 5/19/5 13/28/13 12/27/12
f 5/19/5 6/20/6 13/28/13
f 6/20/6 14/29/14 13/28/13
f 6/20/6 7/21/7 14/29/14
f 7/21/7 15/30/15 14/29/14
f 7/21/7 8/22/8 15/30/15
f 8/22/8 16/31/16 15/30/15
f 8/22/8 9/23/9 16/31/16
f 9/23/9 17/32/17 16/31/16
f 9/23/9 10/24/10 17/32/17
f 10/24/10 18/33/18 17/32/17
f 10/24/10 3/25/3 18/33/18
f 3/25/3 11/34/11 18/33/18
f 11/26/11 12/27/12 19/35/19
f 12/27/12 20/36/20 19/35/19
f 12/27/12 13/28/13 20/36/20
f 13/28/13 21/37/21 20/36/20
f 13/28/13 14/29/14 21/37/21
f 14/29/14 22/38/22 21/37/21
f 14/29/14 15/30/15 22/38/22
f 15/30/15 23/39/23 22/38/22
f 15/30/15 16/31/16 23/39/23
f 16/31/16 24/40/24 23/39/23
f 16/31/16 17/32/17 24/40/24
f 17/32/17 25/41/25 24/40/24
f 17/32/17 18/33/18 25/41/25
f 18/33/18 26/42/26 25/41/25
f 18/33/18 11/34/11 26/42/26
f 11/34/11 19/43/19 26/42/26
f 19/35/19 20/36/20 27/44/27
f 20/36/20 28/45/28 27/44/27
f 20/36/20 21/37/21 28/45/28
f 21/37/21 29/46/29 28/45/28
f 21/37/21 22/38/22 29/46/29
f 22/38/22 30/47/30 29/46/29
f 22/38/22 23/39/23 30/47/30
f 23/39/23 31/48/31 30/47/30
f 23/39/23 24/40/24 31/48/31
f 24/40/24 32/49/32 31/48/31
f 24/40/24 25/41/25 32/49/32
f 25/41/25 33/50/33 32/49/32
f 25/41/25 26/42/26 33/50/33
f 26/42/26 34/51/34 33/50/33
f 26/42/26 19/43/19 34/51/34
f 19/43/19 27/52/27 34/51/34
f 27/44/27 28/45/28 35/53/35
f 28/45/28 36/54/36 35/53/35
f 28/45/28 29/46/29 36/54/36
f 29/46/29 37/55/37 36/54/36
f 29/46/29 30/47/30 37/55/37
f 30/47/30 38/56/38 37/55/37
f 30/47/30 31/48/31 38/56/38
f 31/48/31 39/57/39 38/56/38
f 31/48/31 32/49/32 39/57/39
f 32/49/32 40/58/40 39/57/39
f 32/49/32 33/50/33 40/58/40
f 33/50/33 41/59/41 40/58/40
f 33/50/33 34/51/34 41/59/41
f 34/51/34 42/60/42 41/59/41
f 34/51/34 27/52/27 42/60/42
f 27/52/27 35/61/35 42/60/42
f 35/53/35 36/54/36 43/62/43
f 36/54/36 44/63/44 43/62/43
f 36/54/36 37/55/37 44/63/44
f 37/55/37 45/64/45 44/63/44
f 37/55/37 38/56/38 45/64/45
f 38/56/38 46/65/46 45/64/45
f 38/56/38 39/57/39 46/65/46
f 39/57/39 47/66/47 46/65/46
f 39/57/39 40/58/40 47/66/47
f 40/58/40 48/67/48 47/66/47
f 40/58/40 41/59/41 48/67/48
f 41/59/41 49/68/49 48/67/48
f 41/59/41 42/60/42 49/68/49
f 42/60/42 50/69/50 49/68/49
f 42/60/42 35/61/35 50/69/50
f 35/61/35 43/70/43 50/69/50
f 43/62/43 44/63/44 51/71/51
f 44/63/44 52/72/52 51/71/51
f 44/63/44 45/64/45 52/72/52
f 45/64/45 53/73/53 52/72/52
f 45/64/45 46/65/46 53/73/53
f 46/65/46 54/74/54 53/73/53
f 46/65/46 47/66/47 54/74/54
f 47/66/47 55/75/55 54/74/54
f 47/66/47 48/67/48 55/75/55
f 48/67/48 56/76/56 55/75/55
f 48/67/48 49/68/49 56/76/56
f 49/68/49 57/77/57 56/76/56
f 49/68/49 50/69/50 57/77/57
f 50/69/50 58/78/58 57/77/57
f 50/69/50 43/70/43 58/78/58
f 43/70/43 51/79/51 58/78/58
f 2/9/2 51/71/51 52/72/52
f 2/10/2 52/72/52 53/73/53
f 2/11/2 53/73/53 54/74/54
f 2/12/2 54/74/54 55/75/55
f 2/13/2 55/75/55 56/76/56
f 2/14/2 56/76/56 57/77/57
f 2/15/2 57/77/57 58/78/58
f 2/16/2 58/78/58 51/79/51
