#
# Created for Leeds COMP 5821M Autumn 2020
#
# Sphere
# Slices: 4
# Segments: 4
#
v  0.0000  0.0000  1.0000
v  0.0000  0.0000 -1.0000
v  0.7071  0.0000  0.7071
v -0.0000  0.7071  0.7071
v -0.7071 -0.0000  0.7071
v  0.0000 -0.7071  0.7071
v  1.0000  0.0000  0.0000
v -0.0000  1.0000  0.0000
v -1.0000 -0.0000  0.0000
v  0.0000 -1.0000  0.0000
v  0.7071  0.0000 -0.7071
v -0.0000  0.7071 -0.7071
v -0.7071 -0.0000 -0.7071
v  0.0000 -0.7071 -0.7071
vn  0.0000  0.0000  1.0000
vn  0.0000  0.0000 -1.0000
vn  0.7071  0.0000  0.7071
vn -0.0000  0.7071  0.7071
vn -0.7071 -0.0000  0.7071
vn  0.0000 -0.7071  0.7071
vn  1.0000  0.0000  0.0000
vn -0.0000  1.0000  0.0000
vn -1.0000 -0.0000  0.0000
vn  0.0000 -1.0000  0.0000
vn  0.7071  0.0000 -0.7071
vn -0.0000  0.7071 -0.7071
vn -0.7071 -0.0000 -0.7071
vn  0.0000 -0.7071 -0.7071
vt  1.0000  0.1250  0.0000
vt  1.0000  0.3750  0.0000
vt  1.0000  0.6250  0.0000
vt  1.0000  0.8750  0.0000
vt  0.0000  0.1250  0.0000
vt  0.0000  0.3750  0.0000
vt  0.0000  0.6250  0.0000
vt  0.0000  0.8750  0.0000
vt  0.7500  0.0000  0.0000
vt  0.7500  0.2500  0.0000
vt  0.7500  0.5000  0.0000
vt  0.7500  0.7500  0.0000
vt  0.7500  1.0000  0.0000
vt  0.5000  0.0000  0.0000
vt  0.5000  0.2500  0.0000
vt  0.5000  0.5000  0.0000
vt  0.5000  0.7500  0.0000
vt  0.5000  1.0000  0.0000
vt  0.2500  0.0000  0.0000
vt  0.2500  0.2500  0.0000
vt  0.2500  0.5000  0.0000
vt  0.2500  0.7500  0.0000
vt  0.2500  1.0000  0.0000
f 1/1/1 3/9/3 4/10/4
f 1/2/1 4/10/4 5/11/5
f 1/3/1 5/11/5 6/12/6
f 1/4/1 6/12/6 3/13/3
f 3/9/3 7/14/7 4/10/4
f 4/10/4 7/14/7 8/15/8
f 4/10/4 8/15/8 5/11/5
f 5/11/5 8/15/8 9/16/9
f 5/11/5 9/16/9 6/12/6
f 6/12/6 9/16/9 10/17/10
f 6/12/6 10/17/10 3/13/3
f 3/13/3 10/17/10 7/18/7
f 7/14/7 11/19/11 8/15/8
f 8/15/8 11/19/11 12/20/12
f 8/15/8 12/20/12 9/16/9
f 9/16/9 12/20/12 13/21/13
f 9/16/9 13/21/13 10/17/10
f 10/17/10 13/21/13 14/22/14
f 10/17/10 14/22/14 7/18/7
f 7/18/7 14/22/14 11/23/11
f 2/5/2 12/20/12 11/19/11
f 2/6/2 13/21/13 12/20/12
f 2/7/2 14/22/14 13/21/13
f 2/8/2 11/23/11 14/22/14
