#
# Created for Leeds COMP 5821M Autumn 2020
#
# Generated from file test/torus.tri
# Using Face Normals
#
# Vertex Count 32
# Face Count   64
# Texture Coordinates are theta/phi on sphere from normal vector
#
v 1 3 3.5
v 1.5 3 3
v 1 3.5 3
v 0.5 3 3
v 1.5 2 3
v 1 2 3.5
v 1 3.5 2
v 1.5 3 2
v 0.5 2 3
v 0.5 3 2
v 1 2.5 2
v 1 2 2.5
v 1.5 1 3
v 1 1 3.5
v 1 3.5 1
v 1.5 3 1
v 0.5 1 3
v 0.5 3 1
v 1 2 1.5
v 1.5 2 1
v 1 1.5 2
v 1.5 1 2
v 1 0.5 3
v 1 3 0.5
v 0.5 1 2
v 0.5 2 1
v 1 2 0.5
v 1.5 1 1
v 1 0.5 2
v 0.5 1 1
v 1 1 0.5
v 1 0.5 1
vn 0.57735 0.57735 0.57735
vn -0.57735 0.57735 0.57735
vn 0.707107 0 0.707107
vn 0.707107 -0 0.707107
vn 0.707107 0.707107 0
vn 0.707107 0.707107 0
vn -0.707107 0 0.707107
vn -0.707107 0 0.707107
vn -0.707107 0.707107 0
vn -0.707107 0.707107 0
vn 0.707107 -0.707107 0
vn 0.904534 -0.301511 -0.301511
vn 0.707107 0 -0.707107
vn 0.707107 0 0.707107
vn 0.707107 -0 0.707107
vn 0.707107 0.707107 0
vn 0.707107 0.707107 0
vn -0.707107 0 0.707107
vn -0.707107 0 0.707107
vn -0.707107 -0 -0.707107
vn -0.904534 -0.301511 -0.301511
vn -0.707107 -0.707107 -0
vn -0.707107 0.707107 0
vn -0.707107 0.707107 0
vn 0.707107 0 0.707107
vn 0.904534 -0.301511 0.301511
vn 0.707107 -0.707107 0
vn 0.707107 0 -0.707107
vn 0.904534 0.301511 -0.301511
vn 0.707107 0.707107 0
vn 0.57735 -0.57735 0.57735
vn 0.57735 0.57735 -0.57735
vn -0.57735 -0.57735 0.57735
vn -0.707107 0.707107 0
vn -0.904534 0.301511 -0.301511
vn -0.707107 0 -0.707107
vn -0.707107 -0.707107 0
vn -0.904534 -0.301511 0.301511
vn -0.707107 0 0.707107
vn -0.57735 0.57735 -0.57735
vn 0.707107 0 -0.707107
vn 0.707107 0 -0.707107
vn 0.707107 0.707107 -0
vn 0.904534 0.301511 0.301511
vn 0.707107 -0 0.707107
vn 0.707107 -0.707107 0
vn 0.707107 -0.707107 0
vn -0.707107 -0.707107 0
vn -0.707107 -0.707107 -0
vn -0.707107 0 0.707107
vn -0.904534 0.301511 0.301511
vn -0.707107 0.707107 0
vn -0.707107 0 -0.707107
vn -0.707107 -0 -0.707107
vn 0.707107 0 -0.707107
vn 0.707107 0 -0.707107
vn 0.707107 -0.707107 0
vn 0.707107 -0.707107 0
vn -0.707107 -0.707107 0
vn -0.707107 -0.707107 -0
vn -0.707107 0 -0.707107
vn -0.707107 -0 -0.707107
vn 0.57735 -0.57735 -0.57735
vn -0.57735 -0.57735 -0.57735
vt 0.66255 0.875246 0
vt 0.53079 0.517156 0
vt 0.783833 0.605615 0
vt 0.991259 0.561489 0
vt 0.5 0.562833 0
vt 0.5 1 0
vt 0.75 0.5 0
vt 0.531416 0.5 0
vt 1 0.562833 0
vt 0.968584 0.5 0
vt 0.25 0.5 0
vt 0.5 2.40317e-08 0
vt 0.491259 0.561489 0
vt 0.16255 0.875246 0
vt 0.716167 0.394385 0
vt 0.508741 0.438511 0
vt 0.0307896 0.517156 0
vt 0.96921 0.482844 0
vt 0.5 1 0
vt 0.5 0.437167 0
vt 0.75 0.5 0
vt 0.468584 0.5 0
vt 0.283833 0.605615 0
vt 0.83745 0.124754 0
vt 0.0314165 0.5 0
vt 1 0.437167 0
vt 0.5 2.40317e-08 0
vt 0.46921 0.482844 0
vt 0.25 0.5 0
vt 0.00874096 0.438511 0
vt 0.33745 0.124754 0
vt 0.216167 0.394385 0
f 1/1/1 2/2/1 3/3/1
f 1/1/2 3/3/2 4/4/2
f 1/1/3 5/5/3 2/2/3
f 6/6/4 5/5/4 1/1/4
f 7/7/5 2/2/5 8/8/5
f 3/3/6 2/2/6 7/7/6
f 6/6/7 4/4/7 9/9/7
f 1/1/8 4/4/8 6/6/8
f 10/10/9 3/3/9 7/7/9
f 4/4/10 3/3/10 10/10/10
f 2/2/11 11/11/11 8/8/11
f 2/2/12 12/12/12 11/11/12
f 2/2/13 5/5/13 12/12/13
f 6/6/14 13/13/14 5/5/14
f 14/14/15 13/13/15 6/6/15
f 15/15/16 8/8/16 16/16/16
f 7/7/17 8/8/17 15/15/17
f 14/14/18 9/9/18 17/17/18
f 6/6/19 9/9/19 14/14/19
f 4/4/20 12/12/20 9/9/20
f 4/4/21 11/11/21 12/12/21
f 4/4/22 10/10/22 11/11/22
f 18/18/23 7/7/23 15/15/23
f 10/10/24 7/7/24 18/18/24
f 16/16/25 19/19/25 20/20/25
f 16/16/26 11/11/26 19/19/26
f 16/16/27 8/8/27 11/11/27
f 13/13/28 12/12/28 5/5/28
f 13/13/29 21/21/29 12/12/29
f 13/13/30 22/22/30 21/21/30
f 23/23/31 13/13/31 14/14/31
f 15/15/32 16/16/32 24/24/32
f 14/14/33 17/17/33 23/23/33
f 17/17/34 21/21/34 25/25/34
f 17/17/35 12/12/35 21/21/35
f 17/17/36 9/9/36 12/12/36
f 18/18/37 11/11/37 10/10/37
f 18/18/38 19/19/38 11/11/38
f 18/18/39 26/26/39 19/19/39
f 15/15/40 24/24/40 18/18/40
f 27/27/41 16/16/41 20/20/41
f 24/24/42 16/16/42 27/27/42
f 28/28/43 21/21/43 22/22/43
f 28/28/44 19/19/44 21/21/44
f 28/28/45 20/20/45 19/19/45
f 23/23/46 22/22/46 13/13/46
f 29/29/47 22/22/47 23/23/47
f 29/29/48 17/17/48 25/25/48
f 23/23/49 17/17/49 29/29/49
f 30/30/50 19/19/50 26/26/50
f 30/30/51 21/21/51 19/19/51
f 30/30/52 25/25/52 21/21/52
f 26/26/53 24/24/53 27/27/53
f 18/18/54 24/24/54 26/26/54
f 31/31/55 20/20/55 28/28/55
f 27/27/56 20/20/56 31/31/56
f 29/29/57 28/28/57 22/22/57
f 32/32/58 28/28/58 29/29/58
f 32/32/59 25/25/59 30/30/59
f 29/29/60 25/25/60 32/32/60
f 30/30/61 27/27/61 31/31/61
f 26/26/62 27/27/62 30/30/62
f 31/31/63 28/28/63 32/32/63
f 30/30/64 31/31/64 32/32/64
